<svg width="850" height="325" fill="none" xmlns="http://www.w3.org/2000/svg"><g clip-path="url(#clip0_148_7564)"><path d="M398.938 131.132l-8.189-4.749m-5.402-3.278l-1.965-1.145m15.556 6.716l-5.076-2.948m-.655-.492h-.164m-4.421-2.785l-1.309-.655m11.625 4.259l-1.802-.983m-.654-.491h-.164m-4.422-2.785l-.654-.326m3.439-11.631l-.655-.329m3.439-.818l1.473.983-8.353.49-10.151.491m107.256 46.03l-7.042-4.422m9.169 3.113l-5.73-3.768m-5.076-3.114l-2.784-1.802m13.59 5.899l-2.291-1.474m-.655-.328v-.164m-4.421-2.785l-6.223-3.933m9.661 3.442l-7.369-4.749m-.655-.331v-.164m11.627 4.752l-7.367-4.916m-.657-.326h-.164m-4.257-2.947l-.819-.493m13.59 6.061l-4.257-2.785m-5.076-3.276l-4.257-2.785m13.59 5.899l-.654-.491m-.655-.328v-.165m-4.421-2.785l-7.696-5.077m3.275-7.044l-3.439-2.292m9.661 3.275l-2.127-1.473m.326-2.95l-2.62-1.802m-.655-.49l-.164-.164m9.169 3.111l-4.585-3.276m-.655-.492h-.164m-4.255-2.947l-3.929-2.621m13.588 5.896l-.818-.49m-5.076-3.604l-7.534-5.242m11.465 4.585l-8.679-6.061m-.656-.49h-.164m11.462 4.423l-6.713-4.752m-1.309-4.42l-5.568-3.93m9.661 3.108l-8.514-6.06m12.443 5.242l-7.367-5.404m7.367 1.638l-2.456-1.802M659.625 199.93l-4.093-3.114m6.059 1.476l-2.292-1.802m-4.095-3.275h-.164m3.931-.329l-3.931-3.111m41.756 19.82l-2.458-2.131m-36.678-29.975l-2.62-2.128m43.885 32.432l-1.147-.819m-39.954-33.089l-.819-.654m40.773 30.139l-3.438-2.947m-32.749-27.357l-.49-.328m-4.096-3.44l-1.965-1.638m43.885 32.925l-.818-.655m-37.009-31.122l-4.913-4.259m41.922 31.777l-3.767-3.276m-32.749-27.846l-.655-.655m-4.749-4.094l-1.147-.819m43.885 33.414l-.656-.328m-3.765-3.438h-.164m-33.896-29.322l-5.24-4.423m43.229 33.417l-1.309-1.312m-35.533-30.958l-1.966-1.802m-4.257-3.604l-.328-.164m76.47 62.737l-3.11-2.621m4.257-.164l-.492-.328m-3.601-3.112l-.326-.49m4.419 0l-3.274-2.949m.326-3.604l-1.473-1.312m-29.311-26.861l-4.093-3.604m-33.241-30.304l-3.767-3.439m74.833 64.046l-1.637-1.473m-35.697-32.925l-.983-.983m-36.026-33.252l-3.274-2.95m75.816 65.687l-2.62-2.459m-29.311-27.354l-3.931-3.604m-33.403-31.287l-.328-.328m71.394 62.247l-1.147-.984m-35.859-33.907l-1.311-1.147m-36.844-34.888l-2.456-2.293m102.506 92.712l-.983-.983m-24.56-23.424l-3.765-3.604m-29.313-28.175l-3.602-3.44m-33.732-32.269l-5.568-5.406m73.031 65.196l-.818-.655m-32.259-31.289l-1.637-1.637m-32.749-31.777l-.655-.655m-4.421-4.097l-1.473-1.473m77.615 70.435l-3.274-3.113m-30.458-30.139l-.164-.164m-37.17-36.364l-6.549-6.39m102.504 95.99l-1.147-1.145m-26.362-26.209l-1.801-1.802m-31.931-31.779l-1.965-1.966m-32.749-32.596l-1.637-1.473m96.609 91.238l-.164-.164m-23.742-23.917l-2.127-2.13m-31.605-31.939l-3.274-3.114m35.859 30.796l-3.274-3.439m-31.604-32.27l-2.294-2.292m63.208 59.623l-.654-.655m-57.967-60.28l-2.948-2.947m36.68 32.432l-4.421-4.588m29.31 25.39l-.654-.818m-27.509-29.156l-1.145-1.312m29.144 7.534l-.983-1.147M388.294 51.196l2.129.165m-8.516 1.637l6.387.165m-7.86 1.802h1.637m16.538 2.128h.329m-6.223 1.64l4.257.164m-10.151 1.474l4.257.164m-10.152 1.473h4.421m11.135 3.44h2.456m-4.257 7.206h1.311m.326 10.812h2.62m357.463 140.542v-4.422m0-2.457v-.491m82.856 27.357v-32.106m-16.211 28.173v-34.071m-423.29-68.143V54.146m90.88 105.652V86.741m269.858 138.253v-82.886m-27.346 76.332v-89.436m-70.903 72.237V95.261m38.153 115.153v-96.973m-318.327 10.485l-1.637-.983m16.048 9.337l-9.005-5.242m-3.931.164h-.164m9.825 5.568l-8.842-5.078m13.59 7.863l-.164-.164m1.147.655l-.329-.165m-8.514-2.454l-9.005-5.078m15.064 8.68l-.655-.491m-8.514-2.456l-6.549-3.769m1.309 3.114l-1.309-.655m4.911-63.556l-2.784-.164m315.87 116.955l-1.145-.983m-38.81-34.07l-3.438-2.949m-168.169-10.976l-7.696-5.078m-.656-.49h-.164m249.881 4.585l4.421 4.751m-254.3-9.336h.164m.652.492l7.696 5.078m270.677 7.534v16.873m0 5.568v12.285m0 2.129v12.449m0 1.802v8.027m0 1.802v18.675m-270.185-65.196l-11.134-6.88m11.463 6.88l-11.463-7.044m-95.793-30.139l18.504-1.312m-18.504 1.476l18.504-1.311m-18.504 1.475l18.504-1.147m0-11.138l-18.504.983m281.155 81.574l-6.549-5.078 6.549 5.242m-6.549-3.114l6.549 5.242m.002-11.628l-6.549-5.406 6.549 5.241m-.002 0l-6.549-5.241 6.549 5.406M380.434 99.52l15.065-.655m80.728-3.114l13.59-.654m-109.383 4.585l15.555-.655m80.238-3.111l13.59-.655m-109.383 5.077l17.357-.818m78.436-3.114l13.59-.657M477.21 82.32l-.983.164m-77.289 1.311l-18.504.49m96.447-1.966h-.654m-77.289 1.312l-4.912.164-13.59.329" stroke="#fff" stroke-opacity=".5" stroke-width=".479" stroke-linecap="round" stroke-linejoin="round"/><path d="M398.938 83.794l-18.504.49m96.447-1.966h-.654m-77.289 1.312l-4.912.164-13.59.329M489.817 95.75l-13.59.657m-78.436 3.111l-17.357.819m109.383-5.077l-13.59.654m-80.238 3.112l-15.555.654m458.333 118.102l-1.966.165 1.801-.165m-.164-.162h.326m.003-4.258l-1.147 3.275 1.147-3.44M698.925 117.21v19.656m0 6.551v14.251m0 2.457v14.414m0 11.631v-9.336l-4.585.49m4.585 10.974v21.786m137.876 5.406l1.801 2.292m0 0l-1.801-2.128M380.434 48.249h1.637m-1.637.326h2.455m-2.455 1.476l7.205.164m0-.002l-7.205-.164m2.458-1.474h-2.456m377.11 160.201l-1.147.164m-23.742 1.802l-4.421.328m-29.639-.983l.328-.164m29.311-2.295l4.421-.49m23.744-1.966h.165m-28.33 2.621l4.421-.329m23.744-1.964l.819-.164m.326-3.44h-1.147m-23.742 2.13l-4.421.329m-29.311 2.454l-4.585.491m0-3.602l4.585-.493m29.311-2.456l4.421-.491m23.744-1.966l1.147-.164m-63.208 5.734l4.585-.328m29.311-2.621l4.421-.326m23.744-2.131l1.147-.164m-28.329-1.147l-.983.164m-29.311 2.621l-4.585.328m-36.68-.164l3.931-.328m32.749-3.112l4.585-.49m29.311-2.621l4.421-.493m23.744-2.13l1.147-.164m-99.396 9.502l3.439-.328m32.749-3.112l4.585-.328m29.311-2.785l4.421-.49m23.744-2.129l1.147-.164m-.002-3.932h-1.147m-23.742 2.294l-4.421.491m-29.311 2.785l-4.585.49m-32.749 3.114l-6.549.654m-.002-3.603l4.257-.493m35.043-3.438l4.585-.492m33.24-3.276h.492m23.744-2.457l1.147-.164m-98.087 9.991l-4.421.493 4.421-.329m39.464-4.094l-4.585.49 4.585-.328m57.476-5.897h1.147l-1.147.165m1.145-4.585l-.818.164m-24.071 2.454l-4.421.491m-29.311 2.951l-3.112.329m-1.473-3.606l4.585-.491m29.311-3.113l4.421-.491m23.744-2.621h1.147m-63.208 6.88l4.585-.491m29.311-3.113l4.421-.491m23.744-2.456l1.147-.164m-.002-4.588h-1.147m-23.742 2.621l-4.421.491m-66.645 7.372l-2.292.164m-3.931-3.275l5.733-.655m33.731-3.932l4.093-.329m31.441-3.604l2.291-.328m-77.125 9.01l6.059-.655m33.732-3.93l3.602-.329m31.931-3.604l1.801-.164m0-4.913l-4.421.49m-29.311 3.442l-4.585.491m-32.749 3.932l-5.733.655m-.818-3.933l6.549-.819m32.751-3.93l4.585-.49m29.311-3.606l4.421-.491m23.744-2.785l1.147-.164m-102.508 12.45l6.549-.819m32.751-3.933l4.585-.49m29.311-3.44l4.421-.655m23.744-2.785l1.147-.164m-.002-5.406l-1.147.164m-27.345 3.44l-.818.164m-31.112 3.768l-2.784.329m-34.715 4.421l-4.585.49m.818-4.256l5.733-.655m32.749-4.261l4.585-.493m33.078-4.256h.656m23.742-3.114l1.147-.164m-101.197 13.105l5.24-.655m32.749-4.095l4.585-.654m33.568-4.259h.164m23.744-2.949l1.147-.164m-24.891-2.457l-4.421.49m-29.311 3.933l-4.585.49m-32.749 4.423l-6.549.819m-.002-4.259l6.549-.819m32.751-4.422l4.585-.655m29.311-3.933l4.421-.654m-77.617 10.812l6.549-.983m32.751-4.423l4.585-.655m29.311-3.932l4.421-.655m0-6.061l-4.421.655m-70.084 9.829l-3.11.49m-.002-4.423l6.549-.983m34.062-4.913l3.274-.49m-43.557 6.551l6.223-.819m34.386-5.078l2.948-.328-2.784.328m32.095-4.587h.326m-29.637-2.128l-4.585.655m-32.749 4.913l-6.549.983m-170.465 21.458l5.24-.819m165.223-25.226l6.549-.983m32.751-5.078l4.585-.654m-214.184 32.924l5.076-.655m165.223-25.39l6.549-.983m32.751-4.913l4.585-.819m0-6.88l-4.585.819M489.817 150.79l-12.443 1.966m-1.147-3.932l13.59-2.129m167.353-27.192l4.421-.818m-185.364 30.467l13.59-2.292m167.679-27.192l4.093-.657m.002-7.37l-6.549 1.147m-165.225 27.847l-13.59 2.292m0-4.094l13.59-2.293m165.223-28.667l6.549-1.148m-185.362 32.27l13.59-2.293m165.223-28.501l6.549-1.145m-1.145-7.7l-5.404.982m-165.223 29.649l-13.59 2.457m0-4.423l11.299-1.966m-11.299 2.294l11.789-2.128m1.801-7.701l-10.316 1.967m-80.563 15.396l-4.093.819m-9.498-2.292l13.591-2.785m77.289-15.071l13.59-2.621M385.838 134.41l13.1-2.457m77.289-15.07l13.59-2.786m-6.22-6.553l-7.37 1.474m-77.289 15.563l-18.504 3.768m0-4.259l14.244-2.949m86.296-17.856l8.843-1.802m-109.383 22.933l15.884-3.275m84.985-17.692l8.514-1.802-8.35 1.802m341.087 107.128l-2.292.164m-62.716 4.585l-1.147.165m-23.742 1.802l-3.112.164m-1.309-3.276l4.421-.328m23.744-1.966h1.147m62.714-4.914l2.292-.164m-94.318 7.536l4.421-.328m23.744-1.802l1.147-.164m62.714-4.749l2.292-.164m0 4.749l-2.292.164m-62.716 4.587h-1.147m66.155-5.406l-2.292.164m-62.716 4.587l-1.147.164m-24.889 1.8h1.147-.982M398.938 108.363l-7.696 1.802m-2.456 0l10.152-2.129-9.988 2.129m9.988-4.423l-18.504 4.094m18.504-4.585l-18.504 4.095m18.504-6.716l-18.504 4.259m18.504-4.749l-18.504 4.259m17.521-6.718l-17.521 3.93m15.391-3.93l-15.391 3.44m18.504-20.31l-3.931.983m-14.573-1.638l13.754-3.44m4.75 3.44l-6.549 1.638m-11.955-7.208l4.093-.983m6.551-1.802l7.86-1.966m-6.059 6.553L380.436 81.5m18.502-9.993l-8.353 2.13m-6.549 1.8l-3.602.82m.164-5.897l18.34-4.913m0 5.241l-9.662 2.621m-6.549 1.638l-2.291.657m18.502-10.812l-18.504 4.913m0-6.389l18.504-5.077m0 5.57l-18.504 5.077m18.504-11.795l-18.504 5.078m0-6.715l11.953-3.44m6.551 4.096l-18.504 5.078m9.007-10.32l-9.007 2.621m7.369-3.113l-7.367 1.966m103.651 74.366l-2.456-1.638-5.404.983m12.117 3.604h.164m.655.493l.654.49m-3.929 6.551l-7.695-5.077m-.655-.491h-.164m177.666 66.504l2.62 1.966m-2.128-64.704l5.733 5.242m33.075 29.977l2.784 2.457m0 12.614l-.657-.491m-38.971-34.235l-2.456-2.131m76.799-7.862l-3.603-4.095M521.75 199.439l.818.328m4.094 2.457l.164.164m.49.162l2.128 1.312m11.465 6.715l.49.491m-14.573-47.667h.164m.49.329l1.966 1.309m11.463 7.537l3.438 2.292m4.093 2.621v.164m.491.326l5.568 3.604m4.093 2.621v.164m.492.329l5.24 3.44m4.584 2.949l4.912 3.275m4.585 2.948l4.75 3.111m4.421 2.949l4.422 2.95m-39.136-76.168l7.041 5.242m3.929 2.947l.164.164m.655.328l6.551 4.914m3.929 3.111h.164m.49.493l6.223 4.587m4.585 3.44l5.895 4.422m3.931 2.948l.164.164m.49.326l5.569 4.095m3.765 2.949h.164m.49.493l5.24 3.93m3.767 2.785h.164m.49.49l3.603 2.621M393.698 66.102h2.784m423.78 164.295h2.292m0 2.457l-2.292.164m-63.861-15.89l1.147-.164m62.714-4.585l2.292-.164m-.49 2.785l.49-.164h-.655m-64.353 4.751h-1.147l1.147-.164m2.458-73.711l-3.603-1.638m-23.744-11.14l-4.421-1.966m-28.492-13.267l-5.404-2.457m-32.749-15.399l-6.549-2.947m104.962 48.65l-3.603-1.638m-23.744-11.14l-4.421-1.967m-28.492-13.266l-5.404-2.621m-39.298-18.184l6.549 2.95-6.549-3.112m44.702 20.803l-5.404-2.459m65.664 53.074l-3.603-1.473m-23.744-9.503l-4.421-1.802m-28.492-11.464l-5.404-2.131m-32.749-13.266l-6.549-2.621m-.002-7.044l6.713 2.621m32.587 13.759l5.568 2.293m28.328 11.795l4.585 1.966m23.58 9.827l3.767 1.637m-.164 5.242l-3.603-1.473m-23.744-9.501l-4.421-1.802m-28.492-11.466l-5.404-2.129m-32.749-13.268l-6.549-2.621m-.002 16.051l6.713 2.457m32.587 11.959l5.568 1.967m28.328 10.481l4.585 1.638m23.58 8.683l3.767 1.474m-.164 1.964l-3.603-1.309m-23.744-8.518l-4.421-1.637m-28.492-10.32l-5.404-1.966m-32.749-11.793l-6.549-2.459m-.002-.49l6.549 2.456m32.751 11.958l5.404 1.802m28.492 10.483l4.421 1.474m23.744 8.683l3.603 1.31m60.258 40.622l2.292.657m14.247 4.259l1.966.655m0 1.309l-1.966-.657m-14.247-4.092l-2.292-.655m0-.002l2.292.655m14.247 4.096l1.966.657m-183.727-56.35l6.713 1.966m32.587 9.829l5.568 1.638m28.328 8.517l4.585 1.312m23.58 7.041l3.767 1.148m-.164 1.637l-3.603-.983m-23.744-7.043l-4.421-1.312m-28.492-8.353l-5.404-1.638m-32.749-9.665l-6.549-1.802m-.002 0l6.549 1.802m66.647 19.658l4.421 1.312M380.434 90.838l18.666 5.57m77.127 23.095l13.919 4.095M380.434 94.442l18.504 5.406m77.289 22.766l13.59 4.095m348.95 95.171l-1.966-.655m-14.247-4.587l-2.292-.819m-60.258-19.329l-3.603-1.145m-23.744-7.701l-4.421-1.312m-28.492-9.172l-5.404-1.802m-32.749-10.483l-6.549-2.128M489.817 109.51l-13.59-4.423M398.938 80.19l-18.504-5.897m0-3.932l18.666 6.06m77.127 25.226l13.919 4.587M655.04 160.29l6.713 2.13m32.587 10.646l5.568 1.802m28.328 9.336l4.585 1.474m23.58 7.7l3.767 1.31m60.094 19.657l2.292.819m14.247 4.585l1.966.655M380.434 73.801l18.504 6.06" stroke="#fff" stroke-opacity=".5" stroke-width=".479" stroke-linecap="round" stroke-linejoin="round"/><path d="M476.227 104.761l13.59 4.423m165.223 53.234l6.549 2.128m32.751 10.486l5.404 1.802m28.492 9.172l4.421 1.474m23.744 7.698l3.603 1.147m60.258 19.33l2.292.819m14.247 4.587l1.966.654m-297.368-10.647l-.49-.491m-11.463-6.715l-2.128-1.312m-.492-.164l-.164-.164m-4.094-2.455l-.818-.328m-44.376-67.815h.164m.655.491l7.695 5.077m3.929-6.551l-.654-.49m-.655-.493h-.164m-4.257-2.949l-2.456-1.638-5.404.983m115.771 80.264l-4.422-2.949m-4.421-2.947l-4.75-3.111m-4.583-2.95l-4.912-3.275m-4.586-2.95l-5.24-3.439m-.492-.329v-.164m-4.093-2.621l-5.568-3.604m-.491-.326v-.164m-4.093-2.621l-3.438-2.293m-11.463-7.536l-1.966-1.309m-.492-.329h-.164m130.836 36.693l-2.62-1.967m-34.715-17.525l-3.603-2.621m-.49-.492h-.164m-3.765-2.785l-5.24-3.931m-.492-.492h-.164m-3.765-2.95l-5.569-4.094m-.492-.326l-.164-.165m-3.929-2.949l-5.895-4.423m-4.585-3.44l-6.223-4.587m-.49-.49h-.164m-3.929-3.111l-6.551-4.914m-.655-.328l-.164-.164m-3.929-2.95l-7.041-5.242m102.178 18.675l2.456 2.131m38.971 34.233l.657.491m0-12.612l-2.784-2.457m-33.077-29.975l-5.733-5.242m72.706 1.474l3.603 4.094m.654 9.994h.164M396.482 66.102h-2.784M838.767 243.83v-23.424m-1.966-9.174l1.966.654v16.216m-16.213 11.795v-15.399m0-9.334v24.735m0-24.899v-8.846l-2.292-.819m-421.324-67.65V54.309l-18.504-6.551m18.504 31.775v58.15m90.879 21.952v-33.088m0-.165v-2.62m0-.165V86.904l-13.59-4.912m283.777 142.837v-18.675m0-.164v-25.716m0-.164v-17.526m-3.603-22.116l3.603 1.802v21.786m-27.347 54.22v-65.52m0 32.922v12.285m0-45.372v-23.423l-4.421-2.131m4.421 2.128v23.424m-71.066 48.488v-36.693m0-.164v-18.182m0-.164v-1.802m0-.162v-22.441m0-.002v22.441m0-22.605v-25.88l-6.549-3.112m44.702 117.938V176.67m0-.164v-37.348m0-.164v-25.552l-5.404-2.456m-313.906-63.23l18.504 6.551m357.463 86.163l3.603 1.802m-27.347 10.481v17.363M655.04 92.311l6.549 3.111M522.895 230.071l-1.147-.655m3.767.326l-3.765-1.966m6.549 1.802l-4.093-2.292m-.329-.165h-.164m5.733 1.31l-2.456-1.31m-.493-.164v-.164m-4.093-2.293l-.654-.164m3.438 0l-3.438-1.802m6.223 1.638l-4.258-2.457m-.492-.164l-.164-.164m6.387 1.804l-2.946-1.638m15.717 6.878l-1.308-.655m-11.956-6.715l-.164-.165m-4.093-2.292l-2.948-1.638m23.254 11.303l-3.931-2.293m-13.591-7.536l-4.421-2.621m-.491-.164v-.165m25.38 12.614l-4.093-2.292m-14.409-8.191l-3.439-1.966m-.492-.329h-.165m25.382 12.45l-3.931-2.128m-.49-.329h-.165m-3.929-2.456l-1.308-.655m-11.463-6.553l-.655-.329m-.328-.326h-.164m-4.093-2.293l-2.456-1.473m31.766 16.378l-3.931-2.293m-.326-.164l-.164-.164m-4.093-2.293l-4.093-2.458m-13.757-7.861l-4.748-2.621m34.06 17.692l-3.931-2.293m-4.586-2.623l-4.257-2.456m-.326-.329h-.165m-13.754-8.026l-4.093-2.293m34.058 17.692l-3.929-2.293m-.493-.164l-.164-.164m-3.929-2.295l-4.257-2.457m-.328-.162l-.164-.164m-4.094-2.294l-1.144-.819m-11.463-6.552l-1.145-.654m-4.585-2.785l-1.966-.983m40.609 21.621l-4.093-2.294m-.328-.327h-.164m-3.929-2.292l-4.258-2.457m-.328-.328h-.164m-4.093-2.457l-4.093-2.456m-14.247-8.356l-4.912-2.785m43.555 23.588l-4.093-2.457m-.326-.164h-.164m-3.931-2.456l-4.258-2.457m-.326-.164l-.164-.164m-4.095-2.293l-4.257-2.621m-.491-.328h-.164m-13.59-8.027l-4.586-2.785m-.49-.326h-.164m44.048 23.916l-3.932-2.293m-.49-.328h-.164m-3.929-2.295l-4.093-2.456m-.493-.327h-.164m-3.929-2.456l-4.421-2.621m24.563 12.612l-3.931-2.293m-4.586-2.785l-4.093-2.457m-4.583-2.785l-4.422-2.621m-.328-.164l-.164-.164m25.053 12.94l-3.929-2.292m-.492-.164v-.165m-4.093-2.292l-4.094-2.621m-.328-.164h-.164m-4.093-2.457l-4.257-2.621m24.398 12.612l-3.931-2.292m-.326-.327h-.164m-3.929-2.459l-4.093-2.456m-4.586-2.785l-4.257-2.621m-.492-.326h-.165m-3.928-2.457l-4.586-2.785m-.492-.329h-.165m-4.093-2.456l-.982-.655m-11.461-6.882l-2.128-1.309m-.492-.326h-.164m-4.093-2.459l-.819-.491m73.686 31.941l-3.767-2.292m-4.421-2.785l-4.093-2.621m-.492-.164v-.164m-3.929-2.457l-4.258-2.621m-4.585-2.947l-4.422-2.785m-.49-.329h-.164m-3.929-2.456l-4.75-3.112m-.49-.328h-.164m-4.093-2.457l-4.914-3.275m-.49-.329h-.165m-4.093-2.621l-.818-.49m-11.463-7.208l-2.946-1.802m72.047 43.079l-3.767-2.456m-.491-.165v-.164m-3.928-2.456l-4.094-2.457m-.328-.329h-.164m-3.931-2.62l-4.257-2.621m-4.422-2.783l-4.585-2.95m-4.584-2.785l-4.749-3.113m-.327-.326h-.164m-4.093-2.621l-4.912-3.112m-.492-.328h-.164m-4.093-2.621l-4.093-2.621m-12.118-7.534v-.164m72.866 43.9l-3.765-2.292m-4.421-2.786l-3.931-2.62m-4.42-2.786l-4.257-2.785m-.492-.328h-.164m-3.929-2.457l-4.422-2.947m-4.585-2.785l-4.748-3.113m-4.585-2.948l-4.914-3.113m-.491-.326h-.164m-4.093-2.621l-5.24-3.44m-.49-.329h-.164m-14.409-9.336l-1.473-.819m78.27 47.667l-3.767-2.457m-4.258-2.785l-4.093-2.621m-.328-.164l-.164-.164m-3.929-2.457l-4.257-2.785m-.329-.162l-.164-.164m-3.929-2.459l-4.421-2.947m-.491-.165l-.164-.164m-3.929-2.456l-4.749-3.114m-4.586-2.947l-4.912-3.114m-.49-.326l-.164-.164m-3.931-2.621l-5.404-3.276m-.491-.328v-.164m-4.093-2.619l-.818-.49m-11.463-7.373l-2.946-1.802m81.546 49.959l-3.767-2.292m-4.421-2.949l-3.929-2.457m-4.424-2.947l-4.257-2.621m-4.419-2.949l-4.422-2.95m-.492-.162l-.164-.164m-3.929-2.459l-4.748-3.111m-.328-.326h-.164m-3.931-2.621l-5.076-3.276m-4.586-2.949l-5.24-3.44m-.49-.328h-.164m-4.093-2.621l-4.093-2.785m-11.463-7.37l-.655-.329m-.492-.328l-.164-.164m83.021 51.436l-3.767-2.456m-4.257-2.788l-4.093-2.62m-.328-.327h-.164m-3.767-2.456l-4.257-2.786m-4.42-2.949l-4.421-2.947m-.493-.164l-.164-.164m-3.929-2.457l-4.585-3.111m-.491-.329h-.164m-3.929-2.621l-4.913-3.275m-.491-.329h-.164m-4.093-2.621l-5.24-3.439m-4.586-3.114l-5.566-3.602m-.492-.328h-.164m-14.738-9.665l-.982-.49m87.933 54.71l-3.767-2.459m-4.257-2.783L602.313 215m-4.422-2.785l-4.093-2.785m-4.421-2.947l-4.422-2.785m-.492-.329v-.164m-3.929-2.456l-4.75-3.112m-4.583-2.949l-4.912-3.276m-4.585-3.113l-5.24-3.276m-.493-.326l-.164-.164m-3.929-2.621l-5.568-3.604m-.491-.329l-.164-.164m-4.093-2.619l-.654-.49m-11.463-7.536l-2.946-1.802m89.896 56.512l-2.455-1.638m-4.422-2.785l-3.929-2.621m-4.259-2.949l-4.257-2.785m15.72 8.027l-3.929-2.621m-4.26-2.948l-4.257-2.785m-.326-.164l-.164-.164m16.21 8.355l-3.931-2.621m-4.257-2.949l-4.093-2.785m-.491-.162v-.164m13.1 6.389l-.818-.655m-4.422-2.787l-4.093-2.785m-4.259-2.947l-4.421-2.95m-.491-.326v-.164m-3.929-2.621l-4.585-3.111m-.493-.329h-.164m-3.929-2.621l-4.749-3.275m-.491-.329l-.164-.164m-3.929-2.621l-5.24-3.44m-.492-.326v-.164m-4.093-2.621l-5.402-3.766m-.493-.331h-.164m-4.093-2.783l-5.731-3.932m-.492-.326h-.164m-4.093-2.949l-4.093-2.786m-11.463-7.698l-1.801-1.147m86.95 56.186l-4.093-2.786m-4.421-2.949l-4.258-2.947m-.492-.328l-.164-.165m-3.767-2.62l-4.586-3.112m-.49-.328h-.164m-3.929-2.621l-4.748-3.44m-.492-.326h-.164m-3.929-2.623l-5.076-3.602m-.493-.328h-.164m-3.929-2.786l-5.568-3.604m-4.583-3.275l-5.73-3.933m-4.75-3.109l-6.059-4.258m73.851 47.664l-2.456-1.638m-4.421-2.947l-4.258-2.949m-.492-.329l-.164-.164m-3.765-2.619l-4.585-3.111m-4.422-3.114l-4.912-3.275m-4.421-3.114l-5.24-3.439m-.492-.329v-.164m-4.094-2.619l-5.404-3.768m-4.585-3.276l-5.731-3.932m-4.747-3.111l-6.059-4.259m-.656-.328v-.165m-4.094-2.783l-.49-.328m-11.463-7.863l-2.946-1.966m86.458 56.677l-4.257-2.95m-.492-.326v-.164m-3.929-2.621l-4.586-3.114m-4.421-3.111l-4.748-3.276m-.492-.328l-.164-.164m-3.929-2.619l-5.076-3.604m-.493-.328h-.164m-3.929-2.785l-5.404-3.769m-.49-.326h-.164m-3.932-2.785l-5.732-4.094m-.488-.329h-.164m-4.093-2.785l-6.059-4.259m-.493-.326l-.164-.164m-4.093-2.785l-4.093-2.95m-11.463-7.862l-2.455-1.638m89.406 59.135l-4.257-3.113m-4.422-2.947l-4.585-3.114m-.329-.328l-.164-.165m-3.764-2.618l-4.912-3.44m-4.422-3.114l-5.075-3.439m-.493-.329l-.164-.164m-3.929-2.783l-5.402-3.768m-.495-.326h-.164m-3.929-2.785l-5.73-4.095m-.493-.328h-.164m-4.093-2.785l-5.894-4.259m-.655-.329v-.164m-4.095-2.783l-6.549-4.587m-.49-.328h-.164m78.272 51.763l-4.258-3.114m-4.257-2.947l-4.585-3.275m-4.422-3.114l-4.747-3.275m-.493-.329h-.164m-3.767-2.783l-5.076-3.604m-.49-.328h-.164m-3.929-2.785l-5.404-3.766m-4.586-3.278l-5.73-3.933m-4.586-3.273l-6.058-4.259m-.493-.492h-.164m-4.093-2.95l-6.387-4.422m-.49-.327l-.165-.164m-4.093-2.785l-.326-.328m-11.463-8.025l-2.946-1.966m93.826 63.065l-1.147-.983m-4.419-2.949l-4.422-3.276m-.492-.328h-.164m-3.765-2.785l-4.75-3.276m-.49-.49h-.164m-3.767-2.785l-5.076-3.604m-.49-.327h-.165m-3.928-2.785l-5.405-3.768m-.492-.328v-.165m-3.929-2.783l-5.733-3.93m-.49-.492h-.164m-3.929-2.786l-6.059-4.258m-.492-.491h-.164m-4.093-2.949l-6.387-4.423m-.491-.49h-.164m-4.093-2.95l-4.093-2.947m-11.463-8.027l-2.946-2.128m91.86 62.08l-4.421-3.111m-.49-.329h-.165m-3.764-2.785l-4.748-3.439m-.492-.329h-.165m-3.766-2.785l-5.076-3.604m-.493-.326l-.164-.164m-3.765-2.785l-5.404-3.769m-.49-.326l-.164-.164m-3.929-2.783l-5.569-3.932m-4.747-3.44l-5.895-4.259m-4.749-3.275l-6.387-4.588m-.493-.328l-.164-.164m-4.093-2.947l-6.713-4.752m-.49-.326l-.165-.164m78.927 53.401l-2.946-1.967m-4.258-3.113l-4.749-3.44m-.493-.328v-.164m-3.929-2.783l-5.075-3.604m-4.422-3.112l-5.24-3.932m-4.585-3.276l-5.731-3.93m-4.585-3.44l-5.895-4.258m-.49-.329l-.164-.164m-4.096-2.785l-6.222-4.587m-4.748-3.438l-6.713-4.915m-.654-.329v-.164m-4.26-2.947l-.164-.164m-11.789-8.518l-2.62-1.802m106.6 73.876l-.983-.819m-15.392-11.138l-4.75-3.44m-4.419-3.114l-4.912-3.604m-.492-.49h-.164m-3.765-2.785l-5.404-3.931m-4.422-3.275l-5.732-4.095m-4.583-3.277l-5.895-4.259m-.492-.493h-.165m-3.928-2.947l-6.387-4.587m-.491-.326l-.164-.164m-4.093-2.95l-6.713-4.749m-.493-.492h-.164m-4.093-3.112l-4.093-2.947m-11.463-8.355l-2.946-1.966m93.826 64.867l-4.586-3.276m-.49-.328l-.164-.164m-3.765-2.785l-4.912-3.604m-.492-.327l-.164-.164m-3.929-2.785l-5.24-3.766m-4.422-3.442l-5.568-4.094m-4.586-3.278l-6.058-4.259m-4.586-3.437l-6.222-4.587m-4.748-3.44l-6.713-4.914m-.49-.492h-.165m-4.095-3.114l-7.041-5.077m-.655-.491h-.164m-12.279-9.01v-.164m103.979 73.221l-.654-.493m-11.791-8.843l-.983-.655m-.326-.329h-.164m-3.767-2.785l-5.076-3.766m-4.421-3.277l-5.24-3.769m-4.422-3.437l-5.568-4.095m-.49-.328h-.165m-3.928-2.949l-5.895-4.423m-.493-.327l-.164-.164m-3.929-2.949l-6.222-4.587m-.655-.326v-.165m-4.093-2.947l-6.713-4.915m-.492-.491h-.165m-4.093-2.949l-7.041-5.242m-4.912-3.604v-.164m92.189 65.032l-.983-.655m-13.262-9.993l-5.076-3.604m-.328-.491h-.165m-3.764-2.785l-5.24-3.932m-.493-.326l-.164-.165m-3.929-2.949l-5.568-4.094m-4.419-3.276l-5.895-4.423m-4.585-3.44l-6.223-4.587m-4.75-3.604l-6.549-4.913m-.657-.328l-.164-.165m-4.093-2.947l-6.877-5.242m-.655-.49l-.164-.164m84.003 49.468l-.983-.655m-11.789-9.174l-.655-.49m-.49-.329v-.164m-3.931-2.947l-5.404-4.094m-.49-.493h-.165m-3.767-2.949l-5.894-4.587m-.492-.327v-.164m-3.929-2.949l-6.223-4.752m-.491-.488h-.164m-3.929-3.113l-4.257-3.276m39.136 26.699l-5.404-4.258m-4.421-3.44l-5.733-4.423m-.49-.49h-.164m-3.931-3.114l-6.059-4.749m-.49-.328l-.164-.165m40.447 28.011l-.655-.492m-11.791-9.337l-2.456-1.966m-.49-.326l-.164-.164m-3.767-2.95l-5.73-4.587m-.493-.326l-.164-.164m-3.929-2.947l-6.059-4.752m178.977 66.177l-2.948-2.949m7.206 2.623l-2.949-2.949m-3.274-3.276l-1.801-1.802m12.281 7.699l-2.948-2.95m-3.275-3.275l-1.309-1.638m11.789 7.534l-2.784-2.947m7.041 2.621l-2.62-2.785m7.042 2.456l-.49-.328M308.713 5.824l1.473.164m-9.823 2.948l1.473.164m-9.662 2.785l1.637.164m-9.497 2.783l1.473.164m-9.333 2.785l1.473.165m-9.169 2.62l1.638.165m-9.172 2.618l1.638.165m-9.005 2.62h1.637m-8.843 2.621l1.473.165m-8.514 2.456l1.473.165m-8.515 2.456l1.638.164m-8.515 2.457h1.637m-8.35 2.457h1.637m-8.186 2.458h1.473m-7.86 2.293l1.473.164m-7.86 2.293h1.473m-7.695 2.292h1.473m-7.694 2.295h1.473m-7.532 2.128h1.473m-7.369 2.293h1.473m-7.368 2.13h1.637m-7.367 2.13h1.637m-7.205 2.129h1.473m-7.042 1.966h1.473m-6.875 1.966h1.473m-6.877 2.128h1.473m-6.713 1.802h1.473m-6.713 1.966h1.473m-6.549 1.967h1.473m-6.549 1.802h1.473m-6.387 1.802h1.473m-6.384 1.8h1.473m-6.221 1.801h1.473m-6.223 1.802h1.474m-6.06 1.638h1.312m-6.059 1.802h1.473M87.98 87.56h1.475m-5.897 1.638h1.31m-5.73 1.64h1.472m-5.73 1.638l1.309-.165m-5.566 1.638h1.309m-5.567 1.638h1.474m-5.569 1.476h1.31m-5.403 1.473h1.309m-5.402 1.474h1.473m-5.404 1.473h1.475m-5.404 1.476h1.473m-5.24 1.474h1.311m-5.242 1.473l1.473-.164m-5.238 1.476h1.473m-5.076 1.309h1.311m-4.913 1.476l1.31-.164m-4.913 1.473l1.31-.164m-4.91 1.474l1.308-.165m-4.912 1.476l1.474-.164m-4.914 1.476l1.473-.165m-4.91 1.31h1.473m-4.75 1.311h1.312m-4.75 1.145H4.63m-4.748 1.312l1.474-.164m-4.584 1.309h1.309m-4.586 1.147h1.312m-4.422 1.312l1.31-.164m-4.42 1.309l1.311-.164m-4.424 1.311l1.31-.164m-4.42 1.148h1.311m-4.26 1.147h1.31m-4.258 1.145h1.147m-4.093 1.147l1.311-.164m-4.257 1.147h1.309m-4.257 1.148l1.31-.164m-4.094 1.145h1.309m-4.094.983h1.31m-4.094 1.147l1.311-.164m-4.093 1.147l1.31-.164m-3.93 1.147h1.145m-3.929.983h1.311m-3.93.981h1.31m-3.93.986l1.308-.165m-3.765 1.146l1.147-.165m-3.769 1.148l1.311-.165m-3.767.984h1.147m-3.767.983l1.311-.165m-3.767.984h1.31m-3.765.983l1.308-.165m-3.764.984h1.309m-3.603.983l1.147-.165m-3.603.984h1.311m-3.603.818h1.311m-3.602.984l1.31-.165m-3.604.983l1.147-.164m-3.439.983l1.145-.164m-3.275.983h1.147m-3.438.819h1.144m-3.272.819h1.147m-3.44.819l1.146-.164m-3.274.983l1.144-.164m-3.274.983l1.145-.165m-3.273.821h1.147m-3.112.819h1.145m-3.275.819l1.147-.164m-3.274.819h1.309m-3.275.819l1.147-.164m-3.112.819h1.144m-3.11.818l1.147-.164m-3.11.819h1.147m-3.113.821l1.147-.164m-3.112.819h1.147m-2.949.655h.983m-2.948.818l1.147-.164m-2.947.819l.983-.164m-2.948.819h1.147m-2.949.657h1.147m-2.948.654h1.147m-2.948.655h1.147m-2.949.657h1.147m-2.948.654h1.147m-2.784.655h.982m-2.784.655h1.145m-2.782.657h.983m-2.784.654l1.147-.164m-2.785.819l.983-.164m-2.62.821l.983-.164m-2.62.654h.983m-2.62.655h.983m-2.621.655l.983-.164m-2.622.656h.983m-2.62.655l.983-.164m-2.62.819l1.144-.164m-2.617.656h.982m-2.62.655l1.147-.164m-2.62.655h.983m-2.622.656l1.145-.164m-2.618.655l1.147-.164m-2.62.654h.982m-2.455.657l.982-.164m-2.458.655h.983m-2.456.492h.983m-2.456.655l.983-.164m-2.458.654l1.147-.164m-2.456.657h.983m-2.456.49h.983m-2.458.655l1.147-.164m-2.456.657l.983-.164m-2.458.654l1.144-.164m-2.453.657l.982-.164m-2.293.654l.982-.164m-2.291.655l.982-.164m-2.455.656l.982-.164m-2.294.657l.983-.164m-2.291.655l.982-.165m-2.294.655l.983-.164m-2.291.657l.982-.165m-2.129.655l.982-.164m-2.293.657l.982-.164m-2.291.49h.982m-2.293.493h.982m-2.127.49h.983m-2.294.493l.982-.164m-2.129.654l.983-.164m-2.292.493h.983m-2.13.49h.983m-2.128.493l.983-.164m-2.13.654l.819-.164m-2.128.493h.983m-2.13.49l.983-.164m-2.13.49h.983m-2.127.493l.982-.164m-2.129.657l.982-.165m-2.129.491h.983m-2.13.49l.983-.164m-1.964.493h.819m-1.966.492l.819-.164m-1.966.491h.983m-2.13.492l.983-.164m-1.963.491h.818m-1.965.492l.983-.164m-1.966.49l.819-.164m-1.966.493h.983m-1.963.49l.818-.164m-1.965.493h.982m-1.965.328h.983m-1.966.491l.819-.165m-1.802.493h.819m-1.963.326h.982" stroke="#fff" stroke-opacity=".5" stroke-width=".479" stroke-linecap="round" stroke-linejoin="round"/><mask id="a" style="mask-type:luminance" maskUnits="userSpaceOnUse" x="-306" y="0" width="1156" height="391"><path d="M850 .107H-306V390.09H850V.107z" fill="#fff"/></mask><g mask="url(#a)"><path d="M-228.383 204.682l.983-.164m-1.965.49l.818-.164m-1.801.492h.818m-1.801.327h.819m-1.802.492l.819-.164m-1.802.493l.819-.164m-1.799.49l.983-.164m-1.966.492h.983m-1.966.327h.983m-1.801.328h.818m-1.801.493l.818-.164m-1.801.49l.819-.164m-1.802.492l.983-.164m-1.801.491l.818-.164m-1.801.492l.819-.164m-1.638.493h.819m-1.801.326h.818m-1.637.328h.819m-1.802.329h.819m-1.637.326h.818m-1.801.328h.983m-1.802.327h.819m-1.637.328h.818m-1.637.328l.819-.164m-1.802.491l.819-.164m-1.637.492l.818-.164m-1.637.49l.819-.164m-1.638.493l.655-.164m-1.473.492l.818-.164m-1.637.328h.819m-1.638.327h.819m-1.637.328h.818m-1.637.326l.819-.164m-1.637.493l.818-.164m-1.637.492l.819-.164m-1.638.326h.819m-1.637.329h.818m-1.637.328l.819-.164m-1.637.49l.818-.164m-1.473.493l.819-.164m-1.64.328h.819m-1.637.326h.818m-1.473.329l.657-.165m-1.475.329h.818m-1.637.328h.819m-1.476.327l.819-.165m-1.635.493l.818-.164m-1.475.328h.819m-1.637.326l.818-.164m-1.473.493l.819-.164m-1.637.326h.818m-1.473.328l.819-.164m-1.638.329h.819m-1.473.328h.819m-1.476.326l.655-.164m-1.473.328h.818m-1.473.329l.819-.164m-1.475.326h.818m-1.473.328h.655m-1.473.329l.818-.164m-1.473.328h.819m-1.473.326l.818-.164m-1.473.328h.819m-1.475.329l.654-.164m-1.309.326h.655m-1.309.328l.654-.164m-1.311.329h.655m-1.309.328l.654-.164m-1.309.328h.655m-1.309.326l.654-.164m-1.309.329h.655m-1.311.326l.654-.164m-1.309.328h.657m-1.311.164h.654m-1.309.329l.819-.164m-1.473.326h.818m-1.475.328l.819-.164m-1.309.328h.654m-1.309.329l.655-.164m-1.311.326l.656-.164m-1.311.328h.819m-1.309.329l.654-.165m-1.311.329h.655m-1.309.162h.818m-1.473.328l.819-.164m-1.311.328h.654m-1.309.165h.819m-1.309.326l.655-.164m-1.311.328h.654m-1.309.164h.819m-1.309.329l.654-.164m-1.311.326h.819m-1.309.164h.654m-1.309.328l.819-.164m-1.311.327l.654-.165m-1.144.331h.654m-1.309.326l.655-.164m-1.147.328l.654-.164m-1.309.329h.819m-1.309.162h.654m-.492.164l-.655.164-.654.164m-.492.164h.654m-1.145.162h.655m-1.309.165h.654m-1.147.328l.657-.164m846.578-.164v-.491m2.948.164v-.328m2.784.164v-.328m2.784.164v-.328m2.785.164v-.491m2.946.165v-.329m2.784.164v-.328m2.948.164v-.328m2.782.164v-.493m2.948.165v-.329m2.949.166v-.328m2.946.164v-.49m2.948.162v-.329m2.946.167v-.329m3.113.165v-.491m18.176-.985v-.329m3.274.167v-.329m3.111.165v-.491m3.112.162v-.328m3.11.164v-.491m159.493 24.734v-16.052m0-2.457v-14.906m0-2.457v-.49m4.093 36.2v-16.216m0-2.459v-14.907m0-2.456v-.491m4.095 36.364v-16.215m0-2.459v-15.071m0-2.457v-.49m4.257 36.528v-16.38m0-2.457v-14.906m0-2.621v-.49m4.257 36.69v-16.38m0-2.457v-15.07m0-2.621v-.491m4.258 36.693v-16.38m0-2.459v-15.071m0-2.619v-.328m4.257 36.692v-16.38m0-2.458v-15.233m0-2.621v-.328m49.616 40.132v-45.536m-1151.972 59.133v-34.4m.493 34.236V232.69m.49 34.565v-34.727m.654 34.562v-34.726m.493 34.562V232.2m.49 34.726v-35.054m.655 34.89V231.71m.492 34.888v-35.053m.654 34.891v-35.053m.491 35.053v-35.381m.656 35.217v-35.381m.491 35.216v-35.381m.654 35.381v-35.545m.493 35.381v-35.709m.654 35.545V230.07m.493 35.547v-35.709m.654 35.709v-36.038m.49 35.874v-36.036m.657 35.871v-36.199m.49 36.199v-36.364m.655 36.2v-36.366m.654 36.204v-36.366m.493 36.202V228.27m.654 36.528v-36.692m.655 36.528v-36.693m.656 36.529v-36.857m.49 36.692v-36.854m.655 36.69v-37.019m.654 37.019v-37.183m.657 37.019v-37.183m.655 37.021v-37.347m.654 37.183v-37.347m.492 37.347v-37.676m.655 37.511v-37.675m.654 37.511v-37.837m.657 37.675v-37.837m.654 37.673v-38.002m.655 38.002V224.83m.654 38.002v-38.168m.655 38.004v-38.331m.656 38.166v-38.494m.655 38.33v-38.494m.819 38.33v-38.657m.654 38.657v-38.821m.654 38.659v-38.985m.657 38.821v-38.985m.655 38.82v-39.149m.654 38.985v-39.149m.819 38.987v-39.313m.654 39.149v-39.313m.657 39.149v-39.478" stroke="#fff" stroke-opacity=".5" stroke-width=".479" stroke-linecap="round" stroke-linejoin="round"/></g><path d="M-272.759 261.029v-39.804m.655 39.639v-39.803m.654 39.639v-39.968m.819 39.804v-40.132m.656 39.97v-40.296m.817 40.132v-40.297m.656 40.133v-40.297m.819 40.132v-40.458m.655 40.294v-40.623m.818 40.461v-40.787m.819 40.623v-40.787m.656 40.787v-41.115m.819 40.951v-41.28m.819 41.115v-41.279m.654 41.115v-41.441m.819 41.279V217.13m.818 41.442v-41.77m.819 41.606v-41.77m.819 41.606v-41.932m.656 41.767v-42.098m.819 41.934v-42.26m.816 42.098v-42.425m.821 42.261v-42.425m.819 42.261v-42.589m.818 42.424v-42.753m.819 42.589v-42.915m.818 42.753v-43.081m.983 42.917v-43.246m.819 42.918v-43.244m.819 43.079V212.87m.818 43.243v-43.572m.819 43.41v-43.734m.983 43.57v-43.736m.818 43.572v-43.901m.819 43.736v-44.062m.983 43.9V211.07m.818 44.062v-44.391m.983 44.227v-44.555m.819 44.391v-44.719m.982 44.393v-44.884m.819 44.719v-45.047m.983 44.883v-45.21m.98 45.046v-45.374m.819 45.21v-45.536m.983 45.371v-45.7m.982 45.374v-45.702m.983 45.538v-45.864m.983 45.7v-46.029m.819 45.865v-46.357m.982 46.195v-46.522m.983 46.193v-46.519m.983 46.355v-46.686m.983 46.522v-46.848m1.144 46.683v-47.175m.983 46.849v-47.176m.983 47.012v-47.338m.983 47.174v-47.667m.983 47.503v-47.831m1.144 47.504v-47.83m.983 47.666v-48.159m1.147 47.995V202.06m.983 47.995v-48.321m1.145 48.156v-48.649m.982 48.485v-48.814m1.147 48.486V200.42m.983 48.814v-49.14m1.145 48.978v-49.469m1.147 49.14v-49.468m1.147 49.304v-49.797m1.147 49.635v-49.961m.982 49.632v-50.123m1.145 49.959v-50.287m1.147 49.959v-50.452m1.309 50.288v-50.616m1.147 50.289v-50.78m1.147 50.616v-51.106m1.145 50.78v-51.106m1.147 50.942v-51.435m1.308 51.106v-51.599m1.147 51.435v-51.925m1.311 51.597v-51.925m1.145 51.763v-52.254m1.311 51.925v-52.418m1.147 52.254v-52.744m1.309 52.418V191.74m1.309 52.744v-53.072m1.311 52.744v-53.237m1.145 52.911v-53.401m1.311 53.237v-53.728m1.311 53.399v-53.891m1.473 53.727v-54.218m1.309 53.892v-54.384m1.311 54.055v-54.546m1.309 54.382V187.48m1.475 54.548v-55.039m1.309 54.71v-55.202m1.311 54.874v-55.365m1.473 55.203v-55.858m1.474 55.529v-56.019m1.311 55.691v-56.184m1.473 55.858v-56.348m1.475 56.184v-56.841m1.473 56.514v-57.002m1.473 56.674V182.24m1.475 56.838v-57.495m1.473 57.167v-57.659m1.474 57.333v-57.822m1.637 57.493v-58.15m1.475 57.824v-58.314m1.473 57.986v-58.643m1.637 58.478v-58.968m1.638 58.64v-59.297m1.473 58.971V177.16m1.637 59.133v-59.787m1.637 59.461v-60.116m1.639 59.788v-60.445m1.638 59.954v-60.442m1.637 60.114v-60.771m1.801 60.442v-61.099m1.638 60.773v-61.263m1.801 60.935v-61.59m1.637 61.263v-61.918m1.802 61.59v-62.247m1.801 61.919v-62.573m1.637 62.082v-62.737m1.802 62.409v-63.064m1.801 62.737v-63.391m1.966 63.063v-63.72m1.801 63.227v-64.046m1.799 63.72v-64.375m1.966 64.047v-64.704m1.801 64.213v-64.867m1.966 64.539v-65.358m1.963 64.867v-65.522m1.966 65.194v-65.848m1.965 65.522v-66.341m1.966 65.848v-66.505m1.965 66.179v-66.996m2.128 66.503v-67.324m1.965 66.834V158.98m2.128 67.158v-67.979m2.13 67.489v-68.305m2.127 67.976v-68.633m2.13 68.143v-68.962m2.13 68.469v-69.288m2.291 68.798v-69.617m2.128 69.288V153.41m2.294 69.617v-70.436m2.291 69.943v-70.762m2.13 70.272v-71.09m2.456 70.597v-71.418m2.291 71.092v-72.073m2.292 71.58v-72.401m2.458 71.911v-72.728m2.292 72.235v-73.22m2.456 72.73v-73.547m2.456 73.056v-74.039m2.62 73.382v-74.203m2.456 73.713v-74.694m2.458 74.201v-75.187m2.62 74.697v-75.677m2.62 75.184v-76.168m2.62 75.513v-76.496m2.62 76.006v-76.989m2.784 76.499v-77.48m2.782 76.823v-77.808m2.62 77.317v-78.298m2.784 77.644v-78.625m2.948 78.132v-79.281m2.782 78.626v-79.607m2.948 79.115v-80.265m2.949 79.61v-80.591m2.946 79.936v-81.083m2.948 80.591v-81.738M-16 208.611v-82.066m2.946 81.411v-82.557m3.11 81.903v-83.048m3.277 82.391v-83.54m3.11 82.885v-84.195m3.275 83.54v-84.687m3.276 84.033v-85.178m3.275 84.523v-85.832m3.438 85.175v-86.325m3.275 85.67v-86.979m3.439 86.161v-87.473m3.602 86.818v-88.125m3.439 87.468v-88.782m3.603 87.965v-89.274m3.602 88.617v-89.926m3.765 89.108v-90.42m3.767 89.601v-91.074m3.767 90.419v-91.729m3.765 90.91v-92.386m3.931 91.565v-93.04m3.929 92.223V100.83m3.931 92.712V99.355m4.093 93.366V97.715m4.093 94.188V96.241m4.257 94.845V94.77m4.096 95.495V93.13" stroke="#fff" stroke-opacity=".5" stroke-width=".479" stroke-linecap="round" stroke-linejoin="round"/><mask id="b" style="mask-type:luminance" maskUnits="userSpaceOnUse" x="-306" y="0" width="1156" height="391"><path d="M850 .107H-306V390.09H850V.107z" fill="#fff"/></mask><g mask="url(#b)" stroke="#fff" stroke-opacity=".5" stroke-width=".479" stroke-linecap="round" stroke-linejoin="round"><path d="M78.482 189.285V91.658m4.257 96.806V90.02m4.42 97.463v-99.1m4.587 98.279v-99.92m4.583 98.939V84.942m4.586 99.756V83.302m4.748 100.413V81.503m4.749 101.229V79.862m4.75 101.887V78.061m4.912 102.705V76.259m5.076 103.524V74.293m5.075 104.509V72.492m5.076 105.162V70.526m5.24 106.145V68.561m5.404 106.963V66.596m5.405 107.783V64.63m5.402 108.766V62.664m5.732 109.584V60.536m5.568 110.565V58.569m5.895 111.223V56.275m5.894 112.369V54.146m5.895 113.351V52.016m6.058 114.172V49.724m6.223 115.152V47.429m6.387 116.138V45.137m6.385 117.12V42.68m6.551 118.266V40.223m6.713 119.414V37.767m6.715 120.558V35.31m6.878 121.541V32.853m7.039 122.525V30.23m7.205 123.672V27.447m7.37 124.982V24.826m7.368 126.129V22.041m7.531 127.276V19.256m7.863 128.586V16.471m7.858 129.733V13.522m8.024 131.044V10.574m8.188 132.354V7.461m8.35 133.665V4.35m-619.296 263.23v-34.398m622.409-91.731V4.35m8.022 138.904V5.004m8.024 139.89V5.661m7.696 140.869V6.316m7.534 141.69V6.806m7.367 142.837V7.461m7.37 143.82V8.118m7.041 144.637V8.608m7.04 145.623V9.263m6.879 146.441v-21.622m0-85.996V9.92m6.713 147.094V135.72m0-85.178V10.41m6.713 148.079v-21.131m0-84.523V10.903m6.387 148.896V11.558m6.385 149.714V12.048m6.387 150.536V12.541m6.059 151.354V13.031m6.058 152.174V13.522m6.059 152.83V14.014m5.73 153.647V14.507m5.733 154.302V14.997m5.73 155.123V15.488m5.568 155.777V15.981m5.404 156.432V16.471m5.405 157.087V16.799m5.237 157.906V17.29m5.24 158.398v-18.674m0-74.857V17.783m5.079 159.052v-18.51m0-74.366V18.111m5.075 159.708v-18.347m0-73.71v-67.16m4.912 160.362V18.928m4.912 161.019V19.42m4.749 161.51V19.746m4.748 162.331V20.239m4.586 162.821V20.568m4.585 163.311V20.894m4.586 163.968V21.384m4.419 98.775V21.713m4.259 99.758v-99.43m4.422 100.903V22.37m4.257 101.884V22.696m4.093 102.869V23.188m4.093 103.851V23.515m4.095 104.835V23.843m4.093 105.817V24.17m3.929 106.637V24.497m3.931 107.619V24.826m3.767 108.602V25.153m3.765 109.42V25.481m3.767 110.403V25.807m3.603 111.223V25.971m3.767 112.206V26.3m3.436 113.024V26.628m3.603 113.843V26.954m3.439 114.663V27.283m3.438 115.481V27.447m3.439 116.464V27.773m3.274 117.121V28.102m3.441 117.938V28.266m3.275 118.757V28.593m3.11 119.577V28.92m3.277 120.233V29.085m3.11 121.049V29.411m3.112 121.706V29.74m3.111 122.36V29.904m2.946 123.179V30.23m2.948 123.836V30.394m2.949 178.383V30.723m2.946 178.544V30.887m2.948 179.037V31.214m2.784 179.365V31.377m2.784 179.692V31.542m2.782 180.182V31.868m2.785 180.513V32.032m2.62 180.839V32.361m2.784 181.003v-13.431m0-107.62V32.524m2.62 181.493v-13.43m0-106.966V32.687m2.62 181.824v-13.269m0-106.309V33.015m2.62 182.151V33.179m2.456 182.477V33.344m2.62 182.803V33.67m2.455 182.969V33.834m2.456 183.46V33.998m2.456 183.786V34.163m2.458 184.114V34.489m2.292 184.281V34.653m2.456 184.607V34.817m2.294 184.934V34.981m2.291 185.262V35.146m2.292 185.588V35.472m2.292 185.754V35.636m2.293 186.081v-12.286m0-98.444V35.8m2.128 186.407v-12.285m0-97.954V35.964m2.294 186.736v-12.286m0-97.299V36.129m2.127 186.899V36.291m2.13 187.228V36.455m2.128 187.554V36.619m2.129 187.883V36.783m2.128 188.047V36.945m1.965 188.376V37.274m2.13 188.537V37.602m1.966 188.538V40.223m1.963 186.407V42.68m1.966 184.279V45.301m1.965 182.15V47.757m1.966 180.02V50.378m1.963 177.892V52.835m1.802 175.761v-11.302m0-90.584V55.292m1.965 173.797v-11.302m0-90.258V57.586m1.801 171.829v-11.138m0-89.765v-68.47m1.802 169.866V62.5m1.801 167.734V64.794m1.964 165.769V67.087m1.639 163.968V69.379m1.801 162.002V71.674m1.802 160.036V73.966m1.801 158.07V76.259m1.635 156.27V78.389m1.802 154.466V80.682m1.637 152.501V82.812m1.639 150.7V84.94m1.638 148.898V87.071m1.637 147.26V89.199m1.637 145.458v-10.484m0-84.03V91.329m1.637 143.656v-10.483m0-83.704v-47.34m1.637 141.856V224.83m0-83.213V95.588m1.638 140.052V97.554m1.475 138.415V99.52m1.637 136.775V101.649m1.473 134.974V103.615m1.637 133.334V105.581m1.474 131.697V107.545m1.475 130.061V109.511m1.473 90.258v-88.454m1.473 88.944V113.28m1.475 87.47v-85.504m1.473 85.832v-84.03m1.473 84.521v-82.721m1.476 83.213v-81.247m1.308 81.738v-79.936m1.474 80.428v-78.626m1.311 78.953V126.22m1.473 77.643v-75.841m1.311 76.331v-74.694m1.309 75.187v-73.385m1.475 73.711v-71.909m1.309 72.4v-70.762m1.311 71.254v-69.452m1.309 69.781v-68.141m1.311 68.631v-66.995m1.309 67.324v-65.685m1.147 66.175v-64.539m1.309 64.868v-63.228m1.309 63.718V146.53m1.311 62.41v-60.77m1.147 61.261v-59.624m1.309 59.952v-58.314m1.147 58.805v-57.331m1.309 57.659v-56.021m1.147 56.35v-54.875m1.147 55.365V157.67m1.147 54.053v-52.579m1.309 52.908v-51.435m1.147 85.671v-84.195m1.147 84.359v-82.883m1.144 83.209v-81.574m1.147 81.738v-80.426m1.145 80.755v-79.282m.983 79.444v-77.97m1.147 78.298v-76.824m1.147 76.988v-75.513m1.144 75.678v-8.518m0-34.564v-31.286m.983 74.696v-8.682m0-34.235v-30.304m1.147 73.383v-8.517m0-34.234v-29.32m.983 72.399V177.98m1.147 71.093v-69.781m.98 69.943v-68.634m1.147 68.962v-67.486m.983 67.65v-66.341m.983 66.506v-65.194m1.145 65.522v-64.211m.982 64.373v-63.065m.983 63.229v-61.918m.983 62.247V189.94m.983 61.097v-59.788m.982 59.952v-58.643m.983 58.807v-57.657m.981 57.986v-8.192m0-32.433v-16.054m.985 56.841v-8.027m0-32.432v-15.071m.98 55.694v-8.025m0-32.272v-14.249m.983 54.71v-53.401m.983 53.729V199.93m.819 52.747v-51.435m.982 51.597v-50.452m.983 50.616v-49.469m.819 49.797v-48.485m.982 48.65v-47.503m.983 47.665v-46.522m-35.533 39.152v-33.744m-177.504-3.768v-53.727m207.633 181.984l2.948-.326v-83.376m-2.948-.654v84.358m-1142.801-70.109v63.392l-1.147-.164v-62.899m20.142-4.095v60.935m0 .655v7.37l-1.309-.164v-7.37m0-.329v-60.935m22.597 70.928l1.638.165v-8.191m0-67.815v66.831m-1.64 9.01v-8.189m0-.821v-66.503m27.509 78.134l1.966.164v-9.01m0-75.186v73.385m-1.964 10.647v-9.01m0-1.637v-73.057m34.387 86.978l2.455.328V325.24m0-79.445v78.136m-2.455 16.216v-14.414m0-1.638v-77.807m46.996 98.444l-3.113-.329m3.113-107.78v87.144m0 .328v20.639m-3.111-.328v-20.475m0-.328v-86.325m62.388-12.612v100.739m0 .983v24.078l-4.257-.49v-23.752m0-.984v-99.755m86.786-17.692v119.74m0 1.966v28.83l-6.223-.491v-28.501m0-1.966V209.105m129.033-26.209v187.39l-9.333-.983V184.86m236.945 202.463l-25.053 2.456m0 0l-16.374-1.637V145.056m16.374 244.723V141.781m25.053 5.077v240.463m192.896-153.974l2.784-.164v101.394l-2.784-.165m5.894-100.9l-3.112-.329m172.266 117.283l6.549-.655V225.975m-6.551-1.309v125.8M512.743 369.96l9.006-.983V185.352m-9.006-1.966v186.571m123.302-160.526v148.243l-5.895.491V203.37l-13.754 1.312v139.069m16.701-139.724l-2.949-.655M765.896 344.57l2.948-.329V237.442m-2.946-.655V344.57m45.031-98.282v82.392m0 1.802v9.665l-2.292.164v-9.665m0-1.966v-85.832l-10.152.49m-.002 0v87.963h4.093m8.189-87.963l-2.13-.49m-39.791 88.127l32.423.49m-263.143 2.95l-2.456.164m-13.919 6.551l97.103 2.949m3.11-.164l-5.568-.164m182.582-12.122l-30.129-.49m-247.098 19.163l3.929.164m87.115-5.896l-91.044-2.785m286.724-129.733v7.044m0 1.309v20.639m0 1.311v.491m-1.311-31.123v6.88m0 1.476v20.638m0 1.476v.655m-.164-31.125v6.88m0 1.476v20.638m0 1.312v.819m-6.059-33.089v33.417m7.534-.328v-.491m0-1.311v-20.475m-176.521-65.193v10.809m0 2.293v35.381m-3.113-49.631v11.138m0 2.293v35.873m-.164-49.304v10.974m0 2.293v36.035m-8.35-52.087v52.908m11.791-.49v-35.219m0-2.457v-10.809m-110.367 33.907l7.696 4.749-7.696-4.587m19.159 11.467l47.486 28.994m-47.486-28.83l47.322 28.83m-66.481-38.987l7.696 4.587m11.463 6.879l45.521 27.683m12.445-1.474l-57.966-36.2m57.966 36.2l-57.966-36.364m57.966 36.364l-.654.164h-.328v.164l-.164.329m-68.283-44.065l-2.946-1.802m-.002 0l2.946 1.802m68.777 43.573l.654-.165m-1.147.657l.164-.328m-57.312-103.034V233.51m-5.404-109.418v109.094m-.326-109.094v109.094m-5.404-110.899v110.568m11.299.657V125.894m62.059 19.981l17.521 13.924m12.774 9.993l-.983-.655.983.819m-30.457-24.081l17.686 13.924m-22.928-15.561l22.925 17.855m11.791 9.337l.983.818-.983.165m.981-12.614l-.983-.819m.002 0l.983.819m157.034 46.357l-17.849 1.473m-155.888 12.45l-27.837 2.131m-13.428 1.145l-34.224 2.621m-11.461.983l-7.696.654m0-2.947l7.696-.655m11.463-.983l29.803-2.456m13.59-1.148l32.094-2.62m155.888-12.941l8.678-.657M521.749 224.83l7.696-.654m11.463-.983l29.965-2.457m13.59-1.147l31.93-2.621m155.89-12.778l9.171-.819m-8.843-2.785h-.328m-155.888 13.268l-36.187 3.114m-13.593 1.145l-25.707 2.128m-11.463.985l-7.696.655m0-2.949l7.696-.819m11.463-.983l21.124-1.802m13.752-1.145l40.609-3.604m-94.644 8.517l7.696-.655m11.463-1.147l21.45-1.802m13.59-1.145l40.445-3.604m.002-3.44l-45.03 4.095m-13.592 1.311l-16.867 1.474m-11.461 1.145l-7.696.654m0-3.111l7.696-.819m11.463-.983l12.281-1.147m13.755-1.31l53.38-5.077m11.791-.983l.983-.164m-111.349 10.647l7.696-.654m11.463-1.148l12.445-1.147m13.917-1.309l53.054-4.914m11.791-1.147l.983-.164m-.002-3.604l-.983.164m-11.789 1.147l-57.966 5.571m-13.754 1.309l-7.696.819m-11.463.983l-7.696.819m0-3.276l7.696-.654m11.463-1.148l2.946-.328m13.919-1.474l62.551-6.225m11.791-1.147l.983-.164m-111.349 11.302l7.696-.654m11.463-1.146l3.274-.328m13.919-1.474l62.223-6.224m11.791-1.148h.983m-.002-3.93h-.983m-11.789 1.309l-67.301 6.88m-23.578 2.457l-7.696.818m0-3.275l7.696-.819m18.994-2.13l71.885-7.535m11.791-1.309l.983-.164m-111.349 12.121l7.696-.819m19.321-2.13l71.558-7.534m11.791-1.312h.983m-.002-4.259l-.983.165m-11.789 1.311l-76.96 8.353m-14.083 1.638l-7.532.819m0-3.44l2.784-.328m16.375-1.8l79.416-9.01m11.791-1.309l.983-.165m-111.349 12.776l3.11-.328m16.049-1.802l79.416-9.01m11.791-1.307l.983-.164m-.002-4.423l-.983.164m-11.789 1.309l-79.416 9.339m-12.282-2.131l.819-.164m11.463-1.312l79.416-9.664m11.791-1.31l.819-.164m-103.982 12.778l.491-.164m11.465-1.311l79.416-9.501m0-4.749l-79.416 9.829m-11.463 1.474l-2.946.328m-.002-3.768l2.946-.329m11.301-1.473l79.58-10.155m-93.827 12.283l2.946-.49m11.465-1.476l79.416-9.993m-79.416 10.157l79.416-10.155m12.772-6.88l-.983.165m-13.918 1.802l-77.289 10.155m-11.461 1.637l-2.946.329m-.002-3.768l2.946-.491m11.465-1.476l72.703-9.828m-87.114 11.959l2.946-.326m11.465-1.64l73.032-9.829m-5.895-4.749l-67.137 9.5m-11.463 1.638l-2.946.328m-.002-3.932l2.946-.329m11.465-1.637l62.552-9.172m-76.963 11.302l2.946-.328m74.181-10.81l-62.716 9.172 62.716-9.01m-6.225-5.078l-56.493 8.518m-11.461 1.64l-2.946.49m-.002-4.094l2.946-.491m11.465-1.64l47.322-7.37m-61.733 9.665l2.946-.329m11.465-1.802l47.814-7.37m-13.1-4.096l-34.714 5.406m-11.463 1.802l-2.946.492m-.002-4.096l2.946-.493m11.465-1.964l25.707-4.094m-40.118 6.715l2.946-.49m37.501-6.061l-26.036 4.259 26.2-4.259m-13.757-4.423l-12.445 2.128m-11.461 1.966l-2.946.491m-.002-4.421l2.946-.492m11.465-1.967l3.438-.654m-17.685 3.275l2.784-.49m11.463-1.966l3.931-.657m-18.342 3.113l2.946-.49m.002-6.88l-2.946.491m274.44 88.781l-28.656 2.129m-155.888 11.631l-19.484 1.311m-13.429 1.145l-42.574 3.114m-11.463.819l-2.62.164m-5.076-2.457l7.696-.655m11.463-.821l38.153-2.947m13.426-.983l23.906-1.964m155.89-11.959l25.709-1.966m-276.243 21.457l7.696-.654m11.463-.819l38.481-2.948m37.006-2.949l-23.58 1.966 23.58-1.802m155.888-12.121l26.2-1.966m11.955 3.768l-1.965.164m-7.534.491l-28.656 2.13m-155.888 11.465l-18.011 1.309m-13.265.985l-44.211 3.276m268.055-20.313h-.49m-7.534.655l-28.656 2.128m-155.888 11.469l-18.666 1.474m-13.428.983l-43.393 3.113m308.828-23.59L717.427 36.781m0 .002l-2.456.493m-189.293 158.56l3.767 2.293"/><path d="M545.001 207.465l4.586 2.785m-20.142-5.732l-3.11-1.802m-.492-.329h-.165m.819-47.009l2.946 1.802m11.465 7.696l2.292 1.638m4.093 2.785h.164m.49.492l5.895 3.769m3.931 2.783h.164m.49.492l5.405 3.604m4.095 2.783h.164m.49.329l5.076 3.439m4.584 3.112l4.913 3.275m4.422 2.95l4.747 3.113m4.422 3.111l4.257 2.95m-9.987.819l-4.422-2.785m-.49-.329v-.164m-3.931-2.457l-4.75-3.111m-4.419-2.949l-5.076-3.276m-.493-.328v-.165m-4.093-2.618l-5.24-3.44m-4.585-2.949l-5.569-3.769m-4.583-2.947l-2.456-1.638m-11.463-7.534l-2.784-1.966m49.124-26.702l6.549 4.914m4.587 3.606l6.059 4.749m3.929 2.949l.164.165m.493.326l5.894 4.423m3.765 2.947l.164.164m.49.329l5.405 4.258m4.421 3.44l2.62 1.966m0 9.991l-4.586-3.44m-4.419-3.275l-5.24-3.93m-4.423-3.278l-5.567-4.095m-4.421-3.439l-5.894-4.423m-.655-.327v-.164m-3.931-2.949l-6.223-4.587m-4.747-3.602l-6.552-4.913m-.654-.329v-.164m-4.093-2.949l-7.041-5.242m-.655-.491v-.164m166.203-94.023l132.309 171.993v.819l-1.965.164M717.427 35.636L317.063.255m400.364 35.38v1.146l-2.456.493m2.456-1.636v1.145L317.063 2.712m-622.899 230.635l.819-.164m-.819.164L317.063 2.712m-622.899 230.635v-.656L317.063.255m-622.08 232.928v34.398m0-34.398h.164M317.063 2.712V.255M768.845 252.02l29.638-1.309m-26.2-17.364l28.656-1.802m7.534-.328l2.292-.164m0 2.621h-2.292m-7.534.492l-28.656 1.638m38.482-2.292l-2.292.164m-267.565-.821l44.702-3.276m13.265-.983l17.521-1.309m155.887-11.303l28.656-2.128m7.534-.657l2.292-.164m0 2.785l-2.292.164m-7.534.491l-28.656 1.966m38.482-2.785l-2.292.164m39.298 38.002l-3.439.164m3.439-.164v-45.374m0 45.374h-.164m-3.273.164l2.292-.164M315.261 141.616l-619.46 125.965h1.638-2.456m620.443-126.619V4.023m0 136.939l-620.279 126.619h-.164m620.443-126.619l1.637.328m493.866 78.462l-.164-.164h-.164l-3.932.329m4.096 1.309l-4.093-1.311m0 0v-1.31h.164l3.603.983m-3.767.327l3.931-.165m-.002 0h.164m0 0v1.312m0-1.312v1.312m0-1.312v-.164m0 1.476h-.329m.167 0h-.164l.328.164m-177.67-54.71h.164m-.164 0v2.13m0-2.13h-.165m-5.402.655l5.567 1.637h-.491m-5.076-1.637l5.405-.655h.164m-5.569.655v-2.131m0 2.131h-.164v-1.967l.164-.164m0 0h.329m0 0l4.911 1.474m-4.911-1.474l4.747 1.474m.326 2.13h.165v-2.13m-.162 2.13h-.329m.329 0l-.329.164m.329-.164h.164m-.493 0v.164m0-.164h.164m173.902 73.385l4.093.983v-1.147h-.164m-3.929.164l3.931-.164m-3.931.164v-1.312m3.929 1.148h.328m-.328 0l-3.932.164m3.767 1.145h.329v-.164m-.326.164h.164m-3.931-2.457h.164v-.164l-.164.164z"/></g><path d="M806.836 240.552l3.931.983-3.931-.819m3.931 2.457h-.328.164m.162-30.304l-38.481-12.449m-139.187-44.717l-106.599-34.4m0-.327l106.599 34.4m139.187 44.882l38.481 12.449m-41.92 115.153l29.639.493m0-75.842l-29.639 1.309m-1070.259 70.6l17.686 1.147v-62.244m-17.686 61.097v-57.495m0 57.495v5.897l17.686 1.637v-6.389m22.597 1.638l-21.289-1.473v6.389l21.289 2.13m-.002-75.513v75.513m-21.287-71.09v62.573m22.926 1.473l25.872 1.802m-25.872-1.802v-68.797m0 68.797v7.208l25.872 2.457v-7.863m0 0v-75.841m34.386 78.136l-32.423-2.13v7.862l32.423 3.111v-93.859m-32.423 6.551v76.332m34.879 2.295l41.428 2.949m-41.428-2.949v-85.67m0 85.67v9.01m41.43-103.198v107.128m3.11-9.829l55.02 3.766m-55.02-3.766v-97.953m0 97.953v10.155l55.02 5.242m0-124.489v124.491m4.257-11.302l76.307 5.077m-76.306-5.077V224.664m0 114.008v11.793l76.306 7.372v-14.088m0 0V209.103m6.223 135.137l113.479 7.698m-113.48-7.698V207.792m0 136.448v14.087l113.48 10.975m-.003-184.443v184.443m9.334-16.707l186.182 12.776m-186.182-12.776V182.894m0 169.701v17.692m186.184-225.23V388.14m240.218-53.727l77.615 1.802m-77.615-1.802V233.51m0 100.903h-.657m78.274-106.473l-77.615 5.57m302.606 19.165v84.359l-30.458 3.111V331.3m0-85.014V331.3m0 0l30.458-2.131m-126.906 9.01l51.418-3.766m-51.418 3.766V225.974m0 112.205v11.631l51.418-5.242v-10.155m0 0v-97.627m-253.156-53.401v169.046l-172.754 12.286v22.604l172.754-17.363M339.989 146.857v217.857m367.941-26.042V224.664m0 114.008l-71.885 5.077m71.885-5.077v11.793l-71.885 7.208v-13.924m0-134.319v134.319m-114.295-8.845l11.134-.491V233.346l-11.134-1.474m-718.53 108.6l41.428 3.932m267.729 25.881l186.182 17.853m214.184-18.182v-17.527m109.22-8.517l8.188.164v14.087L521.75 368.975v-17.199l108.401-7.698m-11.299-.002l-6.058.49m-87.115 5.899l-3.929.328M802.579 331.3l6.059.164v8.846m-7.37-8.846l-2.292.164m-30.131 12.614v-9.993l39.79-2.785m-39.79 12.776l39.79-3.932M525.679 202.386h.164m.49.328l3.111 1.802m20.143 5.733l-4.585-2.786m-15.556-9.336l-3.767-2.292m.983-31.941l2.784 1.966m11.463 7.534l2.456 1.638m4.583 2.947l5.568 3.768m4.586 2.949l5.24 3.44m4.093 2.621v.164m.492.327l5.076 3.275m4.419 2.95l4.75 3.111m3.931 2.459v.164m.491.326l4.421 2.785m9.988-.819l-4.258-2.949m-4.421-3.111l-4.748-3.114m-4.421-2.947l-4.914-3.276m-4.583-3.113l-5.076-3.44m-.493-.328h-.164m-4.093-2.783l-5.404-3.604m-.49-.493h-.165m-3.928-2.785l-5.895-3.768m-.492-.491h-.165m-4.093-2.783l-2.291-1.637m-11.463-7.701l-2.946-1.802m24.725-25.716v.164m.654.491l7.041 5.241m4.094 2.95v.164m.654.326l6.551 4.913m4.748 3.604l6.222 4.588m3.931 2.949v.164m.655.326l5.894 4.423m4.422 3.44l5.566 4.094m4.424 3.278l5.24 3.93m4.419 3.276l4.585 3.44m0-9.991l-2.62-1.966m-4.421-3.44l-5.404-4.259m-.491-.326l-.164-.164m-3.767-2.95l-5.894-4.422m-.49-.327l-.165-.164m-3.928-2.949l-6.059-4.749m-4.586-3.604l-6.549-4.914m270.84 116.626l-35.862-7.534v-3.113m0-.162V221.06m0-.164v-1.147m0-.162v-7.044l-38.481-12.45m-.981 37.84l-138.204-29.158m-.002 0v-42.263m0 .002v-11.302l-106.599-34.4m-1.474 65.194l-209.762-44.391m521.539 101.722v-32.596l2.946 1.145m.002 0v32.27l-2.946-.819m-13.266-37.345l-3.275-1.147v34.562l3.275.819m0-34.236v34.233M400.575 138.011l-20.141-4.913v-86.49l20.141 7.208v84.195z" stroke="#fff" stroke-opacity=".5" stroke-width=".479" stroke-linecap="round" stroke-linejoin="round"/><path d="M491.454 159.964V86.579l-15.228-5.57v75.349l15.228 3.604V86.577m269.697 55.529l-4.75-2.292v84.194l4.75 1.148m-.003.002v-83.05l-4.749-2.292m0 84.192l4.749 1.148v-83.05m-32.913-15.725v90.748l5.566 1.311m0-89.436l-5.566-2.621v90.748m.002-.002l5.567 1.311v-89.436l-5.567-2.621m-65.338 75.023V95.096l-7.86-3.767V199.44l7.86 1.964V95.094m184.71 113.027L714.973 37.273m-.002 0L317.062 4.185m0 137.105l209.435 44.555m108.075-30.796l-108.075-35.055v65.848l-1.473.165m109.548-30.958v53.565m0-53.565l-1.474.164m139.185 82.719l-137.711-29.32-1.474.164m178.649 3.604l-39.464-12.776v38.33h-.983m40.447-25.554v33.907m0-33.907l-.983.164m.983 33.743l35.862 7.534m-35.862-7.534h-.983m28.985-2.13v-32.27l-2.947-1.145m-.002 0v32.596l2.946.819m-16.21-38.164v34.233l-3.274-.818v-34.562m3.274 1.145l-3.274-1.148m-119.372 5.735l-6.551-1.638v-98.775l6.551 3.114v97.299zm-320.457-77.48l20.141 4.914V53.817l-20.141-7.208v86.489z" stroke="#fff" stroke-opacity=".5" stroke-width=".479" stroke-linecap="round" stroke-linejoin="round"/></g><defs><clipPath id="clip0_148_7564"><path fill="#fff" transform="translate(-306 .09)" d="M0 0h1156v390H0z"/></clipPath></defs></svg>