<svg width="850" height="325" viewBox="0 0 850 325" fill="none" xmlns="http://www.w3.org/2000/svg">
<g clip-path="url(#clip0_148_7564)">
<path d="M398.938 131.132L390.749 126.383M385.347 123.105L383.382 121.96M398.938 128.676L393.862 125.728M393.207 125.236H393.043M388.622 122.451L387.313 121.796M398.938 126.055L397.136 125.072M396.482 124.581H396.318M391.896 121.796L391.242 121.47M394.681 109.839L394.026 109.51M397.465 108.692L398.938 109.675L390.585 110.165L380.434 110.656M487.69 156.686L480.648 152.264M489.817 155.377L484.087 151.609M479.011 148.495L476.227 146.693M489.817 152.592L487.526 151.118M486.871 150.79V150.626M482.45 147.841L476.227 143.908M485.888 147.35L478.519 142.601M477.864 142.27V142.106M489.491 146.858L482.124 141.942M481.467 141.616H481.303M477.046 138.669L476.227 138.176M489.817 144.237L485.56 141.452M480.484 138.176L476.227 135.391M489.817 141.29L489.163 140.799M488.508 140.471V140.306M484.087 137.521L476.391 132.444M479.666 125.4L476.227 123.108M485.888 126.383L483.761 124.91M484.087 121.96L481.467 120.158M480.812 119.668L480.648 119.504M489.817 122.615L485.232 119.339M484.577 118.847H484.413M480.158 115.9L476.229 113.279M489.817 119.175L488.999 118.685M483.923 115.081L476.389 109.839M487.854 114.424L479.175 108.363M478.519 107.873H478.355M489.817 112.296L483.104 107.544M481.795 103.124L476.227 99.1933M485.888 102.302L477.374 96.2418M489.817 101.484L482.45 96.0798M489.817 97.7176L487.361 95.9156M659.625 199.93L655.532 196.816M661.591 198.292L659.299 196.49M655.204 193.215H655.04M658.971 192.886L655.04 189.775M696.796 209.595L694.338 207.464M657.66 177.489L655.04 175.361M698.925 207.793L697.778 206.974M657.824 173.885L657.005 173.231M697.778 203.37L694.34 200.423M661.591 173.066L661.101 172.738M657.005 169.298L655.04 167.66M698.925 200.585L698.107 199.93M661.098 168.808L656.185 164.549M698.107 196.326L694.34 193.05M661.591 165.204L660.936 164.549M656.187 160.455L655.04 159.636M698.925 193.05L698.269 192.722M694.504 189.284H694.34M660.444 159.962L655.204 155.539M698.433 188.956L697.124 187.644M661.591 156.686L659.625 154.884M655.368 151.28L655.04 151.116M731.51 213.853L728.4 211.232M732.657 211.068L732.165 210.74M728.564 207.628L728.238 207.138M732.657 207.138L729.383 204.189M729.709 200.585L728.236 199.273M698.925 172.412L694.832 168.808M661.591 138.504L657.824 135.065M732.657 199.111L731.02 197.638M695.323 164.713L694.34 163.73M658.314 130.478L655.04 127.528M730.856 193.215L728.236 190.756M698.925 163.402L694.994 159.798M661.591 128.511L661.263 128.183M732.657 190.43L731.51 189.446M695.651 155.539L694.34 154.392M657.496 119.504L655.04 117.211M757.546 209.923L756.563 208.94M732.003 185.516L728.238 181.912M698.925 153.737L695.323 150.297M661.591 118.028L656.023 112.622M729.054 177.818L728.236 177.163M695.977 145.874L694.34 144.237M661.591 112.46L660.936 111.805M656.515 107.708L655.042 106.235M732.657 176.67L729.383 173.557M698.925 143.418L698.761 143.254M661.591 106.89L655.042 100.5M757.546 196.49L756.399 195.345M730.037 169.136L728.236 167.334M696.305 135.555L694.34 133.589M661.591 100.993L659.954 99.5196M756.563 190.758L756.399 190.594M732.657 166.677L730.53 164.547M698.925 132.608L695.651 129.494M731.51 160.29L728.236 156.851M696.632 124.581L694.338 122.289M757.546 181.912L756.892 181.257M698.925 120.977L695.977 118.03M732.657 150.462L728.236 145.874M757.546 171.264L756.892 170.446M729.383 141.29L728.238 139.978M757.382 147.512L756.399 146.365M388.294 51.1963L390.423 51.3605M381.907 52.9983L388.294 53.1625M380.434 54.9645H382.071M398.609 57.0927H398.938M392.715 58.7327L396.972 58.8969M386.821 60.3705L391.078 60.5347M380.926 62.0083H385.347M396.482 65.448H398.938M394.681 72.6539H395.992M396.318 83.4658H398.938M756.401 224.008V219.586M756.401 217.129V216.638M839.257 243.995V211.889M823.046 240.062V205.991M399.756 137.848V54.1456M490.636 159.798V86.7414M760.494 224.994V142.108M733.148 218.44V129.004M662.245 201.241V95.2609M700.398 210.414V113.441M382.071 123.926L380.434 122.943M396.482 132.28L387.477 127.038M383.546 127.202H383.382M393.207 132.77L384.365 127.692M397.955 135.555L397.791 135.391M398.938 136.046L398.609 135.881M390.095 133.427L381.09 128.349M396.154 137.029L395.499 136.538M386.985 134.082L380.436 130.313M381.745 133.427L380.436 132.772M385.347 69.2162L382.563 69.052M698.433 186.007L697.288 185.024M658.478 150.954L655.04 148.005M486.871 137.029L479.175 131.951M478.519 131.461H478.355M728.236 136.046L732.657 140.797M478.357 131.461H478.521M479.173 131.953L486.869 137.031M757.546 144.565V161.438M757.546 167.006V179.291M757.546 181.42V193.869M757.546 195.671V203.698M757.546 205.5V224.175M487.361 158.979L476.227 152.099M487.69 158.979L476.227 151.935M380.434 121.796L398.938 120.484M380.434 121.96L398.938 120.649M380.434 122.124L398.938 120.977M398.938 109.839L380.434 110.822M661.589 192.396L655.04 187.318L661.589 192.56M655.04 189.446L661.589 194.688M661.591 183.06L655.042 177.654L661.591 182.895M661.589 182.895L655.04 177.654L661.589 183.06M380.434 99.5196L395.499 98.8649M476.227 95.7514L489.817 95.0967M380.434 99.6816L395.989 99.0269M476.227 95.9156L489.817 95.2609M380.434 100.338L397.791 99.5196M476.227 96.406L489.817 95.7492M477.21 82.3185L476.227 82.4827M398.938 83.7942L380.434 84.2847M476.881 82.3185H476.227M398.938 83.63L394.026 83.7942L380.436 84.1227" stroke="white" stroke-opacity="0.5" stroke-width="0.479158" stroke-linecap="round" stroke-linejoin="round"/>
<path d="M398.938 83.7941L380.434 84.2846M476.881 82.3184H476.227M398.938 83.6299L394.026 83.7941L380.436 84.1225M489.817 95.7512L476.227 96.4081M397.791 99.5194L380.434 100.338M489.817 95.2608L476.227 95.9154M395.989 99.0268L380.434 99.6815M838.767 217.783L836.801 217.948L838.602 217.783M838.438 217.621H838.764M838.767 213.363L837.62 216.638L838.767 213.198M698.925 117.211V136.867M698.925 143.418V157.669M698.925 160.126V174.54M698.925 186.171V176.835L694.34 177.325M698.925 188.299V210.085M836.801 215.491L838.602 217.783M838.602 217.783L836.801 215.655M380.434 48.249H382.071M380.434 48.5753H382.889M380.434 50.051L387.639 50.2152M387.639 50.2131L380.434 50.0489M382.892 48.5753H380.436M757.546 208.776L756.399 208.94M732.657 210.742L728.236 211.07M698.597 210.087L698.925 209.923M728.236 207.628L732.657 207.138M756.401 205.172H756.566M728.236 207.793L732.657 207.464M756.401 205.5L757.22 205.336M757.546 201.896H756.399M732.657 204.026L728.236 204.355M698.925 206.809L694.34 207.3M694.34 203.698L698.925 203.205M728.236 200.749L732.657 200.258M756.401 198.292L757.548 198.128M694.34 203.862L698.925 203.534M728.236 200.913L732.657 200.587M756.401 198.456L757.548 198.292M729.219 197.145L728.236 197.309M698.925 199.93L694.34 200.258M657.66 200.094L661.591 199.766M694.34 196.654L698.925 196.164M728.236 193.543L732.657 193.05M756.401 190.92L757.548 190.756M658.152 200.258L661.591 199.93M694.34 196.818L698.925 196.49M728.236 193.705L732.657 193.215M756.401 191.086L757.548 190.922M757.546 186.99H756.399M732.657 189.284L728.236 189.775M698.925 192.56L694.34 193.05M661.591 196.164L655.042 196.818M655.04 193.215L659.297 192.722M694.34 189.284L698.925 188.792M732.165 185.516H732.657M756.401 183.059L757.548 182.895M659.461 192.886L655.04 193.379L659.461 193.05M698.925 188.956L694.34 189.446L698.925 189.118M756.401 183.221H757.548L756.401 183.386M757.546 178.801L756.728 178.965M732.657 181.419L728.236 181.91M698.925 184.861L695.813 185.19M694.34 181.584L698.925 181.093M728.236 177.98L732.657 177.489M756.401 174.868H757.548M694.34 181.748L698.925 181.257M728.236 178.144L732.657 177.653M756.401 175.197L757.548 175.033M757.546 170.445H756.399M732.657 173.066L728.236 173.557M661.591 180.929L659.299 181.093M655.368 177.818L661.101 177.163M694.832 173.231L698.925 172.902M730.366 169.298L732.657 168.97M655.532 177.98L661.591 177.325M695.323 173.395L698.925 173.066M730.856 169.462L732.657 169.298M732.657 164.385L728.236 164.875M698.925 168.317L694.34 168.808M661.591 172.74L655.858 173.395M655.04 169.462L661.589 168.643M694.34 164.713L698.925 164.223M728.236 160.617L732.657 160.126M756.401 157.341L757.548 157.177M655.04 169.627L661.589 168.808M694.34 164.875L698.925 164.385M728.236 160.945L732.657 160.29M756.401 157.505L757.548 157.341M757.546 151.935L756.399 152.099M729.054 155.539L728.236 155.703M697.124 159.471L694.34 159.8M659.625 164.221L655.04 164.711M655.858 160.455L661.591 159.8M694.34 155.539L698.925 155.046M732.003 150.79H732.659M756.401 147.676L757.548 147.512M656.351 160.617L661.591 159.962M694.34 155.867L698.925 155.213M732.493 150.954H732.657M756.401 148.005L757.548 147.841M732.657 145.384L728.236 145.874M698.925 149.807L694.34 150.297M661.591 154.72L655.042 155.539M655.04 151.28L661.589 150.461M694.34 146.039L698.925 145.384M728.236 141.451L732.657 140.797M655.04 151.609L661.589 150.626M694.34 146.203L698.925 145.548M728.236 141.616L732.657 140.961M732.657 134.9L728.236 135.555M658.152 145.384L655.042 145.874M655.04 141.451L661.589 140.468M695.651 135.555L698.925 135.065M655.368 141.616L661.591 140.797M695.977 135.719L698.925 135.391L696.141 135.719M728.236 131.132H728.562M698.925 129.004L694.34 129.659M661.591 134.572L655.042 135.555M484.577 157.013L489.817 156.194M655.04 130.968L661.589 129.985M694.34 124.907L698.925 124.253M484.741 157.177L489.817 156.522M655.04 131.132L661.589 130.149M694.34 125.236L698.925 124.417M698.925 117.537L694.34 118.356M489.817 150.79L477.374 152.756M476.227 148.824L489.817 146.695M657.17 119.503L661.591 118.685M476.227 149.152L489.817 146.86M657.496 119.668L661.589 119.011M661.591 111.641L655.042 112.788M489.817 140.635L476.227 142.927M476.227 138.833L489.817 136.54M655.04 107.873L661.589 106.725M476.227 138.995L489.817 136.702M655.04 108.201L661.589 107.056M660.444 99.3552L655.04 100.338M489.817 129.987L476.227 132.444M476.227 128.021L487.526 126.055M476.227 128.349L488.016 126.221M489.817 118.52L479.501 120.487M398.938 135.883L394.845 136.702M385.347 134.41L398.938 131.625M476.227 116.554L489.817 113.933M385.838 134.41L398.938 131.953M476.227 116.883L489.817 114.097M483.597 107.544L476.227 109.018" stroke="white" stroke-opacity="0.5" stroke-width="0.479158" stroke-linecap="round" stroke-linejoin="round"/>
<path d="M398.938 124.581L380.434 128.349M380.434 124.09L394.678 121.141M480.974 103.285L489.817 101.483M380.434 124.416L396.318 121.141M481.303 103.449L489.817 101.647L481.467 103.449M822.554 210.577L820.262 210.741M757.546 215.326L756.399 215.491M732.657 217.293L729.545 217.457M728.236 214.181L732.657 213.853M756.401 211.887H757.548M820.262 206.973L822.554 206.809M728.236 214.345L732.657 214.017M756.401 212.215L757.548 212.051M820.262 207.302L822.554 207.138M822.554 211.887L820.262 212.051M757.546 216.638H756.399M822.554 211.232L820.262 211.396M757.546 215.983L756.399 216.147M731.51 217.947H732.657H731.675M398.938 108.363L391.242 110.165M388.786 110.165L398.938 108.036L388.95 110.165M398.938 105.742L380.434 109.836M398.938 105.251L380.434 109.346M398.938 102.63L380.434 106.889M398.938 102.14L380.434 106.399M397.955 99.6812L380.434 103.611M395.825 99.6812L380.434 103.121M398.938 82.8107L395.007 83.7938M380.434 82.156L394.188 78.7162M398.938 82.156L392.389 83.7938M380.434 76.5858L384.527 75.6027M391.078 73.8007L398.938 71.8345M392.879 78.3878L380.436 81.5013M398.938 71.5083L390.585 73.6387M384.036 75.4385L380.434 76.2574M380.598 70.3609L398.938 65.4476M398.938 70.6894L389.276 73.3102M382.727 74.948L380.436 75.6049M398.938 64.7929L380.434 69.7063M380.434 63.3172L398.938 58.2396M398.938 63.8098L380.434 68.8874M398.938 57.0923L380.434 62.1699M380.434 55.4545L392.387 52.0147M398.938 56.1114L380.434 61.1889M389.441 50.8696L380.434 53.4905M387.803 50.377L380.436 52.3432M484.087 126.709L481.631 125.071L476.227 126.054M488.344 129.658H488.508M489.163 130.151L489.817 130.641M485.888 137.192L478.193 132.115M477.538 131.624H477.374M655.04 198.128L657.66 200.094M655.532 135.39L661.265 140.632M694.34 170.609L697.124 173.066M697.124 185.68L696.467 185.189M657.496 150.954L655.04 148.823M731.839 140.961L728.236 136.866M521.75 199.439L522.568 199.767M526.662 202.224L526.826 202.388M527.316 202.55L529.444 203.862M540.909 210.577L541.399 211.068M526.826 163.401H526.99M527.48 163.73L529.446 165.039M540.909 172.576L544.347 174.868M548.44 177.489V177.653M548.931 177.979L554.499 181.583M558.592 184.204V184.368M559.084 184.697L564.324 188.137M568.908 191.086L573.82 194.361M578.405 197.309L583.155 200.42M587.576 203.369L591.998 206.319M552.862 130.151L559.903 135.393M563.832 138.34L563.996 138.504M564.651 138.832L571.202 143.746M575.131 146.857H575.295M575.785 147.35L582.008 151.937M586.593 155.377L592.488 159.799M596.419 162.747L596.583 162.911M597.073 163.237L602.642 167.332M606.407 170.281H606.571M607.061 170.774L612.301 174.704M616.068 177.489H616.232M616.722 177.979L620.325 180.6M393.698 66.1023H396.482M820.262 230.397H822.554M822.554 232.854L820.262 233.018M756.401 217.128L757.548 216.964M820.262 212.379L822.554 212.215M822.064 215L822.554 214.836H821.899M757.546 219.587H756.399L757.546 219.423M760.004 145.712L756.401 144.074M732.657 132.934L728.236 130.968M699.744 117.701L694.34 115.244M661.591 99.8454L655.042 96.8982M760.004 145.548L756.401 143.91M732.657 132.77L728.236 130.803M699.744 117.537L694.34 114.916M655.042 96.7319L661.591 99.6812L655.042 96.5698M699.744 117.373L694.34 114.914M760.004 167.988L756.401 166.515M732.657 157.012L728.236 155.21M699.744 143.746L694.34 141.615M661.591 128.349L655.042 125.728M655.04 118.684L661.753 121.305M694.34 135.064L699.908 137.357M728.236 149.152L732.821 151.118M756.401 160.945L760.168 162.582M760.004 167.824L756.401 166.351M732.657 156.85L728.236 155.048M699.744 143.582L694.34 141.453M661.591 128.185L655.042 125.564M655.04 141.615L661.753 144.072M694.34 156.031L699.908 157.998M728.236 168.479L732.821 170.117M756.401 178.8L760.168 180.274M760.004 182.238L756.401 180.929M732.657 172.411L728.236 170.774M699.744 160.454L694.34 158.488M661.591 146.695L655.042 144.236M655.04 143.746L661.589 146.202M694.34 158.16L699.744 159.962M728.236 170.445L732.657 171.919M756.401 180.602L760.004 181.912M820.262 222.534L822.554 223.191M836.801 227.45L838.767 228.105M838.767 229.414L836.801 228.757M822.554 224.665L820.262 224.01M820.262 224.008L822.554 224.663M836.801 228.759L838.767 229.416M655.04 173.066L661.753 175.032M694.34 184.861L699.908 186.499M728.236 195.016L732.821 196.328M756.401 203.369L760.168 204.517M760.004 206.154L756.401 205.171M732.657 198.128L728.236 196.816M699.744 188.463L694.34 186.825M661.591 177.16L655.042 175.358M655.04 175.358L661.589 177.16M728.236 196.818L732.657 198.13M380.434 90.8376L399.1 96.4078M476.227 119.503L490.146 123.598M380.434 94.4415L398.938 99.8475M476.227 122.614L489.817 126.709M838.767 221.88L836.801 221.225M822.554 216.638L820.262 215.819M760.004 196.49L756.401 195.345M732.657 187.644L728.236 186.332M699.744 177.16L694.34 175.358M661.591 164.875L655.042 162.747M489.817 109.51L476.227 105.087M398.938 80.1898L380.434 74.2933M380.434 70.3609L399.1 76.4216M476.227 101.647L490.146 106.234M655.04 160.29L661.753 162.42M694.34 173.066L699.908 174.868M728.236 184.204L732.821 185.678M756.401 193.378L760.168 194.688M820.262 214.345L822.554 215.164M836.801 219.749L838.767 220.404M380.434 73.8007L398.938 79.8614" stroke="white" stroke-opacity="0.5" stroke-width="0.479158" stroke-linecap="round" stroke-linejoin="round"/>
<path d="M476.227 104.761L489.817 109.184M655.04 162.418L661.589 164.546M694.34 175.032L699.744 176.834M728.236 186.006L732.657 187.48M756.401 195.178L760.004 196.325M820.262 215.655L822.554 216.474M836.801 221.061L838.767 221.715M541.399 211.068L540.909 210.577M529.446 203.862L527.318 202.55M526.826 202.386L526.662 202.222M522.568 199.767L521.75 199.439M477.374 131.624H477.538M478.193 132.115L485.888 137.192M489.817 130.641L489.163 130.151M488.508 129.658H488.344M484.087 126.709L481.631 125.071L476.227 126.054M591.998 206.318L587.576 203.369M583.155 200.422L578.405 197.311M573.822 194.361L568.91 191.086M564.324 188.136L559.084 184.697M558.592 184.368V184.204M554.499 181.583L548.931 177.979M548.44 177.653V177.489M544.347 174.868L540.909 172.575M529.446 165.039L527.48 163.73M526.988 163.401H526.824M657.66 200.094L655.04 198.127M620.325 180.602L616.722 177.981M616.232 177.489H616.068M612.303 174.704L607.063 170.773M606.571 170.281H606.407M602.642 167.331L597.073 163.237M596.581 162.911L596.417 162.746M592.488 159.797L586.593 155.374M582.008 151.934L575.785 147.347M575.295 146.857H575.131M571.202 143.746L564.651 138.832M563.996 138.504L563.832 138.34M559.903 135.39L552.862 130.148M655.04 148.823L657.496 150.954M696.467 185.187L697.124 185.678M697.124 173.066L694.34 170.609M661.263 140.634L655.53 135.392M728.236 136.866L731.839 140.96M732.493 150.954H732.657M396.482 66.1021H393.698M838.767 243.83V229.252V228.104V220.406M836.801 211.232L838.767 211.886V220.404V228.102M822.554 239.897V224.498M822.554 215.164V223.191V224.5V239.899M822.554 215V206.154L820.262 205.335M398.938 137.685V99.6831V79.5349V76.4214V54.3092L380.434 47.758M398.938 79.5328V99.681V137.683M489.817 159.635V126.547M489.817 126.382V123.762M489.817 123.597V108.855V106.234V86.9049L476.227 81.9916M760.004 224.829V206.154M760.004 205.99V204.516V194.688V180.274M760.004 180.11V164.058V162.584M756.401 140.468L760.004 142.27V162.582V164.056M732.657 218.276V197.965V196.327V185.68V170.119V152.756M732.657 185.678V196.325V197.963M732.657 152.591V151.118V129.168L728.236 127.037M732.657 129.165V151.116V152.589M661.591 201.077V176.998V175.032V164.384M661.591 164.22V162.418V146.038M661.591 145.874V144.072M661.591 143.91V123.271V121.469M661.591 121.467V123.269V143.908M661.591 121.303V95.4223L655.042 92.3109M699.744 210.249V188.298V186.496V176.67M699.744 176.506V174.868V159.797V157.995V139.158M699.744 138.994V137.356V113.442L694.34 110.986M380.434 47.7559L398.938 54.307M756.401 140.47L760.004 142.272M732.657 152.753V170.116M655.04 92.3109L661.589 95.4223M522.895 230.071L521.748 229.416M525.515 229.742L521.75 227.776M528.299 229.578L524.206 227.286M523.877 227.121H523.713M529.446 228.431L526.99 227.121M526.497 226.957V226.793M522.404 224.5L521.75 224.336M525.188 224.336L521.75 222.534M527.973 224.172L523.715 221.715M523.223 221.551L523.059 221.387M529.446 223.191L526.5 221.553M542.217 228.431L540.909 227.776M528.953 221.061L528.789 220.896M524.696 218.604L521.748 216.966M545.002 228.269L541.071 225.976M527.48 218.44L523.059 215.819M522.568 215.655V215.49M547.948 228.104L543.855 225.812M529.446 217.621L526.007 215.655M525.515 215.326H525.35M550.732 227.776L546.801 225.648M546.311 225.319H546.146M542.217 222.863L540.909 222.208M529.446 215.655L528.791 215.326M528.463 215H528.299M524.206 212.707L521.75 211.234M553.516 227.612L549.585 225.319M549.259 225.155L549.095 224.991M545.002 222.698L540.909 220.24M527.152 212.379L522.404 209.758M556.464 227.45L552.533 225.157" stroke="white" stroke-opacity="0.5" stroke-width="0.479158" stroke-linecap="round" stroke-linejoin="round"/>
<path d="M547.947 222.534L543.69 220.078M543.364 219.749H543.199M529.445 211.723L525.352 209.43M559.41 227.122L555.481 224.829M554.988 224.665L554.824 224.501M550.895 222.206L546.638 219.749M546.31 219.587L546.146 219.423M542.052 217.129L540.908 216.31M529.445 209.758L528.3 209.104M523.715 206.319L521.749 205.336M562.358 226.957L558.265 224.663M557.937 224.336H557.773M553.844 222.044L549.586 219.587M549.258 219.259H549.094M545.001 216.802L540.908 214.346M526.661 205.99L521.749 203.205M565.304 226.793L561.211 224.336M560.885 224.172H560.721M556.79 221.716L552.532 219.259M552.206 219.095L552.042 218.931M547.947 216.638L543.69 214.017M543.199 213.689H543.035M529.445 205.662L524.859 202.877M524.369 202.551H524.205M568.253 226.467L564.321 224.174M563.831 223.846H563.667M559.738 221.551L555.645 219.095M555.152 218.768H554.988M551.059 216.312L546.638 213.691M571.201 226.303L567.27 224.01M562.684 221.225L558.591 218.768M554.008 215.983L549.586 213.362M549.258 213.198L549.094 213.034M574.147 225.974L570.218 223.682M569.726 223.518V223.353M565.633 221.061L561.539 218.44M561.211 218.276H561.047M556.954 215.819L552.697 213.198M577.095 225.81L573.164 223.518M572.838 223.191H572.674M568.745 220.732L564.652 218.276M560.066 215.491L555.809 212.87M555.317 212.544H555.152M551.224 210.087L546.638 207.302M546.146 206.973H545.981M541.888 204.517L540.906 203.862M529.445 196.98L527.317 195.671M526.825 195.345H526.661M522.568 192.886L521.749 192.395M595.435 224.336L591.668 222.044M587.247 219.259L583.154 216.638M582.662 216.474V216.31M578.733 213.853L574.475 211.232M569.89 208.285L565.468 205.5M564.978 205.171H564.814M560.885 202.715L556.135 199.603M555.645 199.275H555.481M551.388 196.818L546.474 193.543M545.984 193.214H545.819M541.726 190.593L540.908 190.103M529.445 182.895L526.499 181.093M598.546 224.172L594.779 221.716M594.288 221.551V221.387M590.36 218.931L586.266 216.474M585.938 216.145H585.774M581.843 213.525L577.586 210.904M573.164 208.121L568.579 205.171M563.995 202.386L559.246 199.273M558.919 198.947H558.755M554.662 196.326L549.75 193.214M549.258 192.886H549.094M545.001 190.265L540.908 187.644M528.79 180.11V179.946M601.656 223.846L597.891 221.554M593.47 218.768L589.539 216.148M585.119 213.362L580.862 210.577M580.37 210.249H580.206M576.277 207.792L571.855 204.845M567.27 202.06L562.522 198.947M557.937 195.999L553.023 192.886M552.532 192.56H552.368M548.275 189.939L543.035 186.499M542.545 186.17H542.381M527.972 176.834L526.499 176.015M604.769 223.682L601.002 221.225M596.744 218.44L592.651 215.819M592.323 215.655L592.159 215.491M588.23 213.034L583.973 210.249M583.644 210.087L583.48 209.923M579.551 207.464L575.13 204.517M574.639 204.352L574.475 204.188M570.546 201.732L565.797 198.618M561.211 195.671L556.299 192.557M555.809 192.231L555.645 192.067M551.714 189.446L546.31 186.17M545.819 185.842V185.678M541.726 183.059L540.908 182.569M529.445 175.196L526.499 173.394M608.045 223.353L604.278 221.061M599.857 218.112L595.928 215.655M591.504 212.708L587.247 210.087M582.828 207.138L578.406 204.188M577.914 204.026L577.75 203.862M573.821 201.403L569.073 198.292M568.745 197.966H568.581M564.65 195.345L559.574 192.069M554.988 189.12L549.748 185.68M549.258 185.352H549.094M545.001 182.731L540.908 179.946M529.445 172.576L528.79 172.247M528.298 171.919L528.134 171.755M611.155 223.191L607.388 220.735M603.131 217.947L599.038 215.327M598.71 215H598.546M594.779 212.544L590.522 209.758M586.102 206.809L581.681 203.862M581.188 203.698L581.024 203.534M577.095 201.077L572.51 197.966M572.019 197.637H571.855M567.926 195.016L563.013 191.741M562.522 191.412H562.358M558.265 188.791L553.025 185.352M548.439 182.238L542.873 178.636M542.381 178.308H542.217M527.479 168.643L526.497 168.153M614.43 222.863L610.663 220.404M606.406 217.621L602.313 215M597.891 212.215L593.798 209.43M589.377 206.483L584.955 203.698M584.463 203.369V203.205M580.534 200.749L575.784 197.637M571.201 194.688L566.289 191.412M561.704 188.299L556.464 185.023M555.971 184.697L555.807 184.533M551.878 181.912L546.31 178.308M545.819 177.979L545.655 177.815M541.562 175.196L540.908 174.706M529.445 167.17L526.499 165.368M616.395 221.88L613.94 220.242M609.518 217.457L605.589 214.836M601.33 211.887L597.073 209.102M612.793 217.129L608.864 214.508M604.604 211.56L600.347 208.775M600.021 208.611L599.857 208.447M616.067 216.802L612.136 214.181M607.879 211.232L603.786 208.447M603.295 208.285V208.121M616.395 214.51L615.577 213.855M611.155 211.068L607.062 208.283M602.803 205.336L598.382 202.386M597.891 202.06V201.896M593.962 199.275L589.377 196.164M588.884 195.835H588.72M584.791 193.214L580.042 189.939M579.551 189.61L579.387 189.446M575.458 186.825L570.218 183.385M569.726 183.059V182.895M565.633 180.274L560.231 176.508M559.738 176.177H559.574M555.481 173.394L549.75 169.462M549.258 169.136H549.094M545.001 166.187L540.908 163.401M529.445 155.703L527.644 154.556M614.594 210.742L610.501 207.956M606.08 205.007L601.822 202.06M601.33 201.732L601.166 201.567M597.399 198.947L592.813 195.835M592.323 195.507H592.159M588.23 192.886L583.482 189.446M582.99 189.12H582.826M578.897 186.497L573.821 182.895M573.328 182.567H573.164M569.235 179.781L563.667 176.177" stroke="white" stroke-opacity="0.5" stroke-width="0.479158" stroke-linecap="round" stroke-linejoin="round"/>
<path d="M559.084 172.902L553.354 168.969M548.604 165.86L542.545 161.602M616.396 209.266L613.94 207.628M609.519 204.681L605.261 201.732M604.769 201.403L604.605 201.239M600.84 198.62L596.255 195.509M591.833 192.395L586.921 189.12M582.5 186.006L577.26 182.567M576.768 182.238V182.074M572.674 179.455L567.27 175.687M562.685 172.411L556.954 168.479M552.207 165.368L546.148 161.109M545.492 160.781V160.616M541.398 157.833L540.908 157.505M529.445 149.642L526.499 147.676M612.957 204.353L608.7 201.403M608.208 201.077V200.913M604.279 198.292L599.693 195.178M595.272 192.067L590.524 188.791M590.032 188.463L589.868 188.299M585.939 185.68L580.863 182.076M580.37 181.748H580.206M576.277 178.963L570.873 175.194M570.383 174.868H570.219M566.287 172.083L560.555 167.989M560.067 167.66H559.903M555.81 164.875L549.751 160.616M549.258 160.29L549.094 160.126M545.001 157.341L540.908 154.391M529.445 146.529L526.99 144.891M616.396 204.026L612.139 200.913M607.717 197.966L603.132 194.852M602.803 194.524L602.639 194.359M598.875 191.741L593.963 188.301M589.541 185.187L584.466 181.748M583.973 181.419L583.809 181.255M579.88 178.472L574.478 174.704M573.983 174.378H573.819M569.89 171.593L564.16 167.498M563.667 167.17H563.503M559.41 164.385L553.516 160.126M552.861 159.797V159.633M548.766 156.85L542.217 152.263M541.727 151.935H541.563M619.835 203.698L615.577 200.584M611.32 197.637L606.735 194.362M602.313 191.248L597.566 187.973M597.073 187.644H596.909M593.142 184.861L588.066 181.257M587.576 180.929H587.412M583.483 178.144L578.079 174.378M573.493 171.1L567.763 167.167M563.177 163.894L557.119 159.635M556.626 159.143H556.462M552.369 156.193L545.982 151.771M545.492 151.444L545.327 151.28M541.234 148.495L540.908 148.167M529.445 140.142L526.499 138.176M620.325 201.241L619.178 200.258M614.759 197.309L610.337 194.033M609.845 193.705H609.681M605.916 190.92L601.166 187.644M600.676 187.154H600.512M596.745 184.369L591.669 180.765M591.179 180.438H591.014M587.086 177.653L581.681 173.885M581.189 173.557V173.392M577.26 170.609L571.527 166.679M571.037 166.187H570.873M566.944 163.401L560.885 159.143M560.393 158.652H560.229M556.136 155.703L549.749 151.28M549.258 150.79H549.094M545.001 147.84L540.908 144.893M529.445 136.866L526.499 134.738M618.359 196.818L613.938 193.707M613.448 193.378H613.283M609.519 190.593L604.771 187.154M604.279 186.825H604.114M600.348 184.04L595.272 180.436M594.779 180.11L594.615 179.946M590.85 177.161L585.446 173.392M584.956 173.066L584.792 172.902M580.863 170.119L575.294 166.187M570.547 162.747L564.652 158.488M559.903 155.213L553.516 150.625M553.023 150.297L552.859 150.133M548.766 147.186L542.053 142.434M541.563 142.108L541.398 141.944M620.325 195.345L617.379 193.378M613.121 190.265L608.372 186.825M607.879 186.497V186.333M603.95 183.55L598.875 179.946M594.453 176.834L589.213 172.902M584.628 169.626L578.897 165.696M574.312 162.256L568.417 157.998M567.927 157.669L567.763 157.505M563.667 154.72L557.445 150.133M552.697 146.695L545.984 141.78M545.33 141.451V141.287M541.07 138.34L540.906 138.176M529.117 129.658L526.497 127.856M633.097 201.732L632.114 200.913M616.722 189.775L611.972 186.335M607.553 183.221L602.641 179.617M602.149 179.127H601.985M598.22 176.342L592.816 172.411M588.394 169.136L582.662 165.041M578.079 161.764L572.184 157.505M571.692 157.012H571.527M567.599 154.065L561.212 149.478M560.721 149.152L560.557 148.988M556.464 146.038L549.751 141.289M549.258 140.797H549.094M545.001 137.685L540.908 134.738M529.445 126.383L526.499 124.417M620.325 189.284L615.739 186.008M615.249 185.68L615.085 185.516M611.32 182.731L606.408 179.127M605.916 178.8L605.752 178.636M601.823 175.851L596.583 172.085M592.161 168.643L586.593 164.549M582.007 161.271L575.949 157.012M571.363 153.575L565.141 148.988M560.393 145.548L553.68 140.634M553.19 140.142H553.025M548.93 137.028L541.889 131.951M541.234 131.46H541.07M528.791 122.45V122.286M632.77 195.507L632.116 195.014M620.325 186.171L619.342 185.516M619.016 185.187H618.852M615.085 182.402L610.009 178.636M605.588 175.359L600.348 171.59M595.926 168.153L590.358 164.058M589.868 163.73H589.703M585.775 160.781L579.88 156.358M579.387 156.031L579.223 155.867M575.294 152.918L569.072 148.331M568.417 148.005V147.84M564.324 144.893L557.611 139.978M557.119 139.487H556.954M552.861 136.538L545.82 131.296M540.908 127.692V127.528M633.097 192.56L632.114 191.905M618.852 181.912L613.776 178.308M613.448 177.817H613.283M609.519 175.032L604.279 171.1M603.786 170.774L603.622 170.609M599.693 167.66L594.125 163.566M589.706 160.29L583.811 155.867M579.226 152.427L573.003 147.84M568.253 144.236L561.704 139.323M561.047 138.995L560.883 138.83M556.79 135.883L549.913 130.641M549.258 130.151L549.094 129.987M633.097 179.455L632.114 178.8M620.325 169.626L619.67 169.136M619.18 168.807V168.643M615.249 165.696L609.845 161.602M609.355 161.109H609.19M605.423 158.16L599.529 153.573M599.037 153.246V153.082M595.108 150.133L588.885 145.381M588.394 144.893H588.23M584.301 141.78L580.044 138.504M619.18 165.203L613.776 160.945M609.355 157.505L603.622 153.082M603.132 152.592H602.968M599.037 149.478L592.978 144.729" stroke="white" stroke-opacity="0.5" stroke-width="0.479158" stroke-linecap="round" stroke-linejoin="round"/>
<path d="M592.488 144.401L592.324 144.236M632.771 172.247L632.116 171.755M620.325 162.418L617.869 160.452M617.379 160.126L617.215 159.962M613.448 157.012L607.718 152.425M607.225 152.099L607.061 151.935M603.132 148.988L597.073 144.236M776.05 210.413L773.102 207.464M780.308 210.087L777.359 207.138M774.085 203.862L772.284 202.06M784.565 209.759L781.617 206.809M778.342 203.534L777.033 201.896M788.822 209.43L786.038 206.483M793.079 209.104L790.459 206.319M797.501 208.775L797.011 208.447M308.713 5.82422L310.186 5.98843M300.363 8.93558L301.836 9.09979M292.174 11.8849L293.811 12.0491M284.314 14.832L285.787 14.9962M276.454 17.7813L277.927 17.9455M268.758 20.5664L270.396 20.7306M261.224 23.3494L262.862 23.5136M253.857 26.1345H255.494M246.651 28.7554L248.124 28.9196M239.61 31.3762L241.083 31.5405M232.568 33.9971L234.206 34.1613M225.691 36.618H227.328M218.978 39.0747H220.615M212.429 41.5335H213.902M206.042 43.826L207.515 43.9902M199.655 46.2827H201.128M193.433 48.5751H194.906M187.212 50.8698H188.685M181.153 52.998H182.626M175.257 55.2905H176.73M169.362 57.4209H170.999M163.632 59.5513H165.269M158.064 61.6796H159.537M152.495 63.6458H153.968M147.093 65.612H148.566M141.689 67.7402H143.162M136.449 69.5422H137.922M131.209 71.5084H132.682M126.133 73.4746H127.606M121.057 75.2766H122.53M116.143 77.0786H117.616M111.232 78.8785H112.705M106.484 80.6805H107.957M101.734 82.4824H103.208M97.1489 84.1202H98.46M92.4013 85.9222H93.8744M87.9799 87.56H89.4552M83.5585 89.1978H84.8674M79.1371 90.8377H80.6102M74.8799 92.4755L76.1888 92.3113M70.6227 93.9491H71.9316M66.3654 95.5869H67.8385M62.2702 97.0626H63.5791M58.1771 98.5362H59.486M54.084 100.01H55.5571M50.1529 101.483H51.6281M46.224 102.959H47.697M42.457 104.433H43.7681M38.5259 105.906L39.999 105.742M34.7612 107.218H36.2342M31.1584 108.527H32.4695M27.5556 110.003L28.8667 109.839M23.9528 111.312L25.2639 111.148M20.3522 112.622L21.6611 112.457M16.7494 113.933L18.2225 113.769M13.3086 115.245L14.7817 115.08M9.87217 116.39H11.3452M6.59554 117.701H7.90663M3.1569 118.846H4.62999M-0.117549 120.158L1.35552 119.994M-3.22787 121.303H-1.91896M-6.50451 122.45H-5.19341M-9.61483 123.762L-8.30589 123.598M-12.7251 124.907L-11.414 124.743M-15.8376 126.054L-14.5287 125.89M-18.9479 127.038H-17.6368M-21.8962 128.185H-20.5873M-24.8445 129.33H-23.6976M-27.7907 130.477L-26.4796 130.313M-30.7369 131.46H-29.428M-33.6852 132.608L-32.3741 132.444M-36.4694 133.589H-35.1604M-39.2535 134.572H-37.9446M-42.0377 135.719L-40.7266 135.555M-44.8197 136.702L-43.5108 136.538M-47.4397 137.685H-46.2949M-50.2238 138.668H-48.9128M-52.8438 139.649H-51.5328M-55.4639 140.635L-54.1549 140.47M-57.9197 141.616L-56.7728 141.451M-60.5419 142.599L-59.2308 142.434M-62.9977 143.418H-61.8508M-65.6177 144.401L-64.3067 144.236M-68.0736 145.22H-66.7647M-70.5294 146.203L-69.2205 146.038M-72.9853 147.022H-71.6764M-75.2791 148.005L-74.1322 147.84M-77.735 148.824H-76.4239M-80.0267 149.642H-78.7156M-82.3184 150.626L-81.0073 150.461M-84.6123 151.444L-83.4653 151.28M-86.904 152.263L-85.7592 152.099M-89.0337 153.082H-87.8867M-91.3253 153.901H-90.1806M-93.4529 154.72H-92.306M-95.7467 155.539L-94.5998 155.375M-97.8743 156.358L-96.7295 156.194M-100.004 157.177L-98.8592 157.012M-102.132 157.833H-100.985M-104.097 158.652H-102.952M-106.227 159.471L-105.08 159.307M-108.354 160.126H-107.045M-110.32 160.945L-109.173 160.781M-112.285 161.6H-111.141M-114.251 162.418L-113.104 162.254M-116.214 163.073H-115.067M-118.18 163.894L-117.033 163.73M-120.145 164.549H-118.998M-121.947 165.204H-120.964M-123.912 166.022L-122.765 165.858M-125.712 166.677L-124.729 166.513M-127.677 167.332H-126.53M-129.479 167.989H-128.332M-131.28 168.643H-130.133M-133.081 169.298H-131.934M-134.883 169.955H-133.736M-136.684 170.609H-135.537M-138.321 171.264H-137.339M-140.123 171.919H-138.978M-141.76 172.576H-140.777M-143.561 173.23L-142.414 173.066M-145.199 173.885L-144.216 173.721M-146.836 174.542L-145.853 174.378M-148.473 175.032H-147.49M-150.11 175.687H-149.127M-151.748 176.342L-150.765 176.178M-153.387 176.834H-152.404M-155.024 177.489L-154.041 177.325M-156.661 178.144L-155.517 177.98M-158.134 178.636H-157.152M-159.772 179.291L-158.625 179.127M-161.245 179.782H-160.262M-162.884 180.438L-161.739 180.274M-164.357 180.929L-163.21 180.765M-165.83 181.419H-164.848M-167.303 182.076L-166.321 181.912M-168.779 182.567H-167.796M-170.252 183.059H-169.269M-171.725 183.714L-170.742 183.55M-173.2 184.204L-172.053 184.04M-174.509 184.697H-173.526M-175.982 185.187H-174.999M-177.457 185.842L-176.31 185.678M-178.766 186.335L-177.783 186.171M-180.241 186.825L-179.097 186.661M-181.55 187.318L-180.568 187.154M-182.861 187.808L-181.879 187.644M-184.17 188.299L-183.188 188.135M-185.643 188.791L-184.661 188.627M-186.955 189.284L-185.972 189.12M-188.263 189.775L-187.281 189.61M-189.575 190.265L-188.592 190.101M-190.883 190.758L-189.901 190.593M-192.03 191.248L-191.048 191.084M-193.341 191.741L-192.359 191.577M-194.65 192.067H-193.668M-195.961 192.56H-194.979M-197.106 193.05H-196.123M-198.417 193.543L-197.435 193.379M-199.564 194.033L-198.581 193.869M-200.873 194.362H-199.89M-202.02 194.852H-201.037M-203.165 195.345L-202.182 195.181M-204.312 195.835L-203.493 195.671M-205.621 196.164H-204.638M-206.768 196.654L-205.785 196.49M-207.915 196.98H-206.932M-209.059 197.473L-208.077 197.309M-210.206 197.966L-209.224 197.801M-211.353 198.292H-210.37M-212.5 198.782L-211.517 198.618M-213.481 199.111H-212.662M-214.628 199.603L-213.809 199.439M-215.775 199.93H-214.792M-216.922 200.422L-215.939 200.258M-217.902 200.749H-217.084M-219.049 201.241L-218.066 201.077M-220.032 201.567L-219.213 201.403M-221.179 201.896H-220.196M-222.159 202.386L-221.341 202.222M-223.306 202.715H-222.324M-224.289 203.043H-223.306M-225.272 203.534L-224.453 203.369M-226.255 203.862H-225.436M-227.399 204.188H-226.417" stroke="white" stroke-opacity="0.5" stroke-width="0.479158" stroke-linecap="round" stroke-linejoin="round"/>
<mask id="mask0_148_7564" style="mask-type:luminance" maskUnits="userSpaceOnUse" x="-306" y="0" width="1156" height="391">
<path d="M850 0.107422H-306V390.09H850V0.107422Z" fill="white"/>
</mask>
<g mask="url(#mask0_148_7564)">
<path d="M-228.383 204.682L-227.4 204.518M-229.365 205.008L-228.547 204.844M-230.348 205.336H-229.53M-231.331 205.663H-230.512M-232.314 206.155L-231.495 205.991M-233.297 206.484L-232.478 206.32M-234.277 206.81L-233.294 206.646M-235.26 207.138H-234.277M-236.243 207.465H-235.26M-237.061 207.793H-236.243M-238.044 208.286L-237.226 208.122M-239.027 208.612L-238.208 208.448M-240.01 208.94L-239.027 208.776M-240.828 209.267L-240.01 209.103M-241.811 209.595L-240.992 209.431M-242.63 209.924H-241.811M-243.612 210.25H-242.794M-244.431 210.578H-243.612M-245.414 210.907H-244.595M-246.232 211.233H-245.414M-247.215 211.561H-246.232M-248.034 211.888H-247.215M-248.852 212.216H-248.034M-249.671 212.544L-248.852 212.38M-250.654 212.871L-249.835 212.707M-251.472 213.199L-250.654 213.035M-252.291 213.525L-251.472 213.361M-253.11 213.854L-252.455 213.69M-253.928 214.182L-253.11 214.018M-254.747 214.346H-253.928M-255.566 214.673H-254.747M-256.384 215.001H-255.566M-257.203 215.327L-256.384 215.163M-258.021 215.656L-257.203 215.492M-258.84 215.984L-258.021 215.82M-259.659 216.146H-258.84M-260.477 216.475H-259.659M-261.296 216.803L-260.477 216.639M-262.114 217.129L-261.296 216.965M-262.769 217.458L-261.95 217.294M-263.59 217.622H-262.771M-264.408 217.948H-263.59M-265.063 218.277L-264.406 218.112M-265.881 218.441H-265.063M-266.7 218.769H-265.881M-267.357 219.096L-266.538 218.931M-268.173 219.424L-267.355 219.26M-268.83 219.588H-268.011M-269.648 219.914L-268.83 219.75M-270.303 220.243L-269.484 220.079M-271.121 220.405H-270.303M-271.776 220.733L-270.957 220.569M-272.595 220.898H-271.776M-273.249 221.226H-272.43M-273.906 221.552L-273.251 221.388M-274.724 221.716H-273.906M-275.379 222.045L-274.56 221.881M-276.035 222.207H-275.217M-276.69 222.535H-276.035M-277.508 222.864L-276.69 222.7M-278.163 223.028H-277.344M-278.817 223.354L-277.999 223.19M-279.472 223.518H-278.653M-280.128 223.847L-279.474 223.683M-280.783 224.009H-280.128M-281.437 224.337L-280.783 224.173M-282.094 224.502H-281.439M-282.748 224.83L-282.094 224.666M-283.403 224.994H-282.748M-284.057 225.32L-283.403 225.156M-284.712 225.485H-284.057M-285.368 225.811L-284.714 225.647M-286.023 225.975H-285.366M-286.677 226.139H-286.023M-287.332 226.468L-286.513 226.304M-287.986 226.63H-287.168M-288.643 226.958L-287.824 226.794M-289.133 227.122H-288.479M-289.788 227.451L-289.133 227.287M-290.444 227.613L-289.788 227.449M-291.099 227.777H-290.28M-291.589 228.106L-290.935 227.941M-292.246 228.27H-291.591M-292.9 228.432H-292.082M-293.555 228.76L-292.736 228.596M-294.047 228.924H-293.393M-294.702 229.089H-293.883M-295.192 229.415L-294.537 229.251M-295.848 229.579H-295.194M-296.503 229.743H-295.684M-296.993 230.072L-296.339 229.908M-297.65 230.234H-296.831M-298.14 230.398H-297.486M-298.795 230.726L-297.976 230.562M-299.287 230.889L-298.633 230.724M-299.777 231.055H-299.123M-300.432 231.381L-299.777 231.217M-300.924 231.545L-300.27 231.381M-301.579 231.71H-300.76M-302.069 231.872H-301.415M-301.907 232.036L-302.562 232.2L-303.216 232.364M-303.708 232.528H-303.054M-304.199 232.69H-303.544M-304.853 232.855H-304.199M-305.346 233.183L-304.689 233.019M541.889 232.855V232.364M544.837 232.528V232.2M547.621 232.364V232.036M550.405 232.2V231.872M553.19 232.036V231.545M556.136 231.71V231.381M558.92 231.545V231.217M561.868 231.381V231.053M564.65 231.217V230.724M567.598 230.889V230.56M570.547 230.726V230.398M573.493 230.562V230.072M576.441 230.234V229.905M579.387 230.072V229.743M582.5 229.908V229.417M600.676 228.432V228.103M603.95 228.27V227.941M607.061 228.106V227.615M610.173 227.777V227.449M613.283 227.613V227.122M772.776 251.856V235.804M772.776 233.347V218.441M772.776 215.984V215.494M776.869 251.694V235.478M776.869 233.019V218.112M776.869 215.656V215.165M780.964 251.529V235.314M780.964 232.855V217.784M780.964 215.327V214.837M785.221 251.365V234.985M785.221 232.528V217.622M785.221 215.001V214.511M789.478 251.201V234.821M789.478 232.364V217.294M789.478 214.673V214.182M793.736 250.875V234.495M793.736 232.036V216.965M793.736 214.346V214.018M797.993 250.71V234.33M797.993 231.872V216.639M797.993 214.018V213.69M847.609 253.822V208.286M-304.363 267.419V233.019M-303.87 267.255V232.69M-303.38 267.255V232.528M-302.726 267.09V232.364M-302.233 266.926V232.2M-301.743 266.926V231.872M-301.088 266.762V231.71M-300.596 266.598V231.545M-299.942 266.436V231.383M-299.451 266.436V231.055M-298.795 266.272V230.891M-298.304 266.107V230.726M-297.65 266.107V230.562M-297.157 265.943V230.234M-296.503 265.779V230.07M-296.01 265.617V229.908M-295.356 265.617V229.579M-294.866 265.453V229.417M-294.209 265.288V229.089M-293.719 265.288V228.924M-293.064 265.124V228.758M-292.41 264.962V228.596M-291.917 264.798V228.27M-291.263 264.798V228.106M-290.608 264.634V227.941M-289.952 264.47V227.613M-289.462 264.305V227.451M-288.807 264.141V227.122M-288.153 264.141V226.958M-287.496 263.977V226.794M-286.841 263.815V226.468M-286.187 263.651V226.304M-285.695 263.651V225.975M-285.04 263.486V225.811M-284.386 263.322V225.485M-283.729 263.16V225.323M-283.075 262.996V224.994M-282.42 262.996V224.83M-281.766 262.832V224.664M-281.111 262.668V224.337M-280.455 262.503V224.009M-279.8 262.339V223.845M-278.981 262.175V223.518M-278.327 262.175V223.354M-277.673 262.013V223.028M-277.016 261.849V222.864M-276.361 261.684V222.535M-275.707 261.52V222.371M-274.888 261.358V222.045M-274.234 261.194V221.881M-273.577 261.03V221.552" stroke="white" stroke-opacity="0.5" stroke-width="0.479158" stroke-linecap="round" stroke-linejoin="round"/>
</g>
<path d="M-272.759 261.029V221.225M-272.104 260.864V221.061M-271.45 260.7V220.732M-270.631 260.536V220.404M-269.975 260.374V220.078M-269.158 260.21V219.913M-268.502 260.046V219.749M-267.683 259.881V219.423M-267.028 259.717V219.094M-266.21 259.555V218.768M-265.391 259.391V218.604M-264.735 259.391V218.276M-263.916 259.227V217.947M-263.097 259.062V217.783M-262.443 258.898V217.457M-261.624 258.736V217.13M-260.806 258.572V216.802M-259.987 258.408V216.638M-259.168 258.244V216.312M-258.512 258.079V215.981M-257.693 257.915V215.655M-256.877 257.753V215.328M-256.056 257.589V215.164M-255.237 257.425V214.836M-254.419 257.26V214.507M-253.6 257.096V214.181M-252.782 256.934V213.853M-251.799 256.77V213.524M-250.98 256.442V213.198M-250.161 256.277V212.87M-249.343 256.113V212.541M-248.524 255.951V212.217M-247.541 255.787V212.051M-246.723 255.623V211.722M-245.904 255.458V211.396M-244.921 255.296V211.07M-244.103 255.132V210.741M-243.12 254.968V210.413M-242.301 254.804V210.085M-241.319 254.478V209.594M-240.5 254.313V209.266M-239.517 254.149V208.939M-238.537 253.985V208.611M-237.718 253.821V208.285M-236.735 253.656V207.956M-235.753 253.33V207.628M-234.77 253.166V207.302M-233.787 253.002V206.973M-232.968 252.838V206.481M-231.986 252.676V206.154M-231.003 252.347V205.828M-230.02 252.183V205.497M-229.037 252.019V205.171M-227.893 251.854V204.679M-226.91 251.528V204.352M-225.927 251.364V204.026M-224.944 251.2V203.533M-223.961 251.036V203.205M-222.817 250.709V202.879M-221.834 250.545V202.386M-220.687 250.381V202.06M-219.704 250.055V201.734M-218.559 249.89V201.241M-217.577 249.726V200.912M-216.43 249.398V200.42M-215.447 249.234V200.094M-214.302 249.072V199.603M-213.155 248.743V199.275M-212.008 248.579V198.782M-210.861 248.417V198.456M-209.879 248.088V197.965M-208.734 247.924V197.637M-207.587 247.596V197.144M-206.278 247.432V196.816M-205.131 247.105V196.325M-203.984 246.941V195.835M-202.839 246.615V195.509M-201.692 246.451V195.016M-200.384 246.122V194.523M-199.237 245.958V194.033M-197.926 245.63V193.705M-196.781 245.468V193.214M-195.47 245.139V192.721M-194.323 244.975V192.231M-193.014 244.649V191.74M-191.705 244.484V191.412M-190.394 244.156V190.919M-189.249 243.83V190.429M-187.938 243.666V189.938M-186.627 243.337V189.446M-185.154 243.173V188.955M-183.845 242.847V188.463M-182.534 242.518V187.972M-181.225 242.354V187.48M-179.75 242.028V186.989M-178.441 241.699V186.497M-177.13 241.371V186.006M-175.657 241.209V185.351M-174.183 240.88V184.861M-172.872 240.552V184.368M-171.399 240.226V183.878M-169.924 240.062V183.221M-168.451 239.735V182.733M-166.978 239.407V182.24M-165.503 239.078V181.583M-164.03 238.75V181.091M-162.556 238.424V180.602M-160.919 238.095V179.945M-159.444 237.769V179.455M-157.971 237.441V178.798M-156.334 237.276V178.308M-154.696 236.948V177.651M-153.223 236.622V177.16M-151.586 236.293V176.506M-149.949 235.967V175.851M-148.31 235.639V175.194M-146.672 235.148V174.706M-145.035 234.82V174.049M-143.234 234.491V173.392M-141.596 234.165V172.902M-139.795 233.837V172.247M-138.158 233.51V171.592M-136.356 233.182V170.935M-134.555 232.854V170.281M-132.918 232.363V169.626M-131.116 232.035V168.971M-129.315 231.708V168.317M-127.349 231.38V167.66M-125.548 230.887V166.841M-123.749 230.561V166.186M-121.783 230.233V165.529M-119.982 229.742V164.875M-118.016 229.414V164.056M-116.053 228.923V163.401M-114.087 228.595V162.747M-112.122 228.269V161.928M-110.156 227.776V161.271M-108.191 227.45V160.454M-106.063 226.957V159.633M-104.098 226.467V158.98M-101.97 226.138V158.159M-99.8405 225.648V157.343M-97.7129 225.319V156.686M-95.5832 224.829V155.867M-93.4535 224.336V155.048M-91.1618 223.846V154.229M-89.0343 223.517V153.41M-86.7404 223.027V152.591M-84.4487 222.534V151.772M-82.319 222.044V150.954M-79.8632 221.551V150.133M-77.5715 221.225V149.152M-75.2798 220.732V148.331M-72.8218 220.242V147.514M-70.5301 219.749V146.529M-68.0742 219.259V145.712M-65.6184 218.768V144.729M-62.9984 218.111V143.908M-60.5425 217.621V142.927M-58.0845 217.128V141.941M-55.4645 216.638V140.961M-52.8445 216.145V139.977M-50.2245 215.49V138.994M-47.6045 215V138.011M-44.8203 214.51V137.03M-42.0383 213.853V136.045M-39.4183 213.362V135.064M-36.6341 212.708V134.083M-33.6858 212.215V132.934M-30.9038 211.56V131.953M-27.9555 211.068V130.803M-25.0072 210.413V129.822M-22.061 209.758V128.675M-19.1127 209.266V127.528M-16.0002 208.611V126.545M-13.0541 207.956V125.399M-9.94375 207.302V124.254M-6.66713 206.645V123.105M-3.55682 205.99V121.795M-0.282339 205.335V120.648M2.99427 204.681V119.503M6.26875 204.026V118.194M9.70738 203.369V117.044M12.9819 202.714V115.735M16.4205 201.896V114.423M20.0233 201.241V113.116M23.4619 200.584V111.802M27.0647 199.767V110.493M30.6674 199.11V109.184M34.4322 198.292V107.872M38.1992 197.473V106.399M41.9661 196.818V105.089M45.7309 195.999V103.613M49.662 195.178V102.138M53.5909 194.361V100.83M57.522 193.542V99.3548M61.6151 192.721V97.7148M65.7082 191.903V96.2412M69.9654 191.086V94.7698M74.0606 190.265V93.1299" stroke="white" stroke-opacity="0.5" stroke-width="0.479158" stroke-linecap="round" stroke-linejoin="round"/>
<mask id="mask1_148_7564" style="mask-type:luminance" maskUnits="userSpaceOnUse" x="-306" y="0" width="1156" height="391">
<path d="M850 0.107422H-306V390.09H850V0.107422Z" fill="white"/>
</mask>
<g mask="url(#mask1_148_7564)">
<path d="M78.4819 189.285V91.6578M82.7391 188.464V90.02M87.1583 187.483V88.3822M91.746 186.662V86.7422M96.3294 185.681V84.9424M100.915 184.698V83.3025M105.663 183.715V81.5026M110.412 182.732V79.8627M115.162 181.749V78.0607M120.074 180.766V76.2587M125.15 179.783V74.2925M130.225 178.802V72.4927M135.301 177.654V70.5264M140.541 176.671V68.5602M145.945 175.524V66.5962M151.35 174.379V64.63M156.752 173.396V62.6638M162.484 172.248V60.5355M168.052 171.101V58.5693M173.947 169.792V56.2747M179.841 168.644V54.1464M185.736 167.497V52.016M191.794 166.188V49.7236M198.017 164.876V47.4289M204.404 163.567V45.1365M210.789 162.257V42.6798M217.34 160.946V40.2231M224.053 159.637V37.7664M230.768 158.325V35.3098M237.646 156.851V32.8531M244.685 155.378V30.2301M251.89 153.902V27.4471M259.26 152.429V24.8262M266.628 150.955V22.0411M274.159 149.317V19.256M282.022 147.842V16.4709M289.88 146.204V13.5216M297.904 144.566V10.5745M306.092 142.928V7.46097M314.442 141.126V4.34961M-304.854 267.581V233.183M317.555 141.452V4.34961M325.577 143.254V5.00429M333.601 144.894V5.66113M341.297 146.53V6.31581M348.831 148.006V6.80629M356.198 149.643V7.46097M363.568 151.281V8.11781M370.609 152.755V8.60828M377.649 154.231V9.26296M384.528 155.704V134.082M384.528 48.0858V9.9198M391.241 157.014V135.72M391.241 50.5425V10.4103M397.954 158.489V137.358M397.954 52.8349V10.9029M404.341 159.799V11.5576M410.726 161.272V12.0481M417.113 162.584V12.5407M423.172 163.895V13.0312M429.23 165.205V13.5216M435.289 166.352V14.0143M441.019 167.661V14.5069M446.752 168.809V14.9974M452.482 170.12V15.4878M458.05 171.265V15.9805M463.454 172.413V16.4709M468.859 173.558V16.7994M474.096 174.705V17.2898M479.336 175.688V157.014M479.336 82.1573V17.7825M484.415 176.835V158.325M484.415 83.9593V18.1109M489.49 177.819V159.472M489.49 85.7613V18.6014M494.402 178.964V18.9276M499.314 179.947V19.4202M504.063 180.93V19.7465M508.811 182.077V20.2391M513.397 183.06V20.5676M517.982 183.879V20.8938M522.568 184.862V21.3843M526.987 120.159V21.7127M531.246 121.471V22.0411M535.668 122.944V22.3696M539.925 124.254V22.6958M544.018 125.565V23.1884M548.111 127.039V23.5147M552.206 128.35V23.8431M556.299 129.66V24.1694M560.228 130.807V24.4978M564.159 132.116V24.8262M567.926 133.428V25.1525M571.691 134.573V25.4809M575.458 135.884V25.8072M579.061 137.03V25.9714M582.828 138.177V26.2998M586.264 139.324V26.6282M589.867 140.471V26.9545M593.306 141.617V27.2829M596.744 142.764V27.4471M600.183 143.911V27.7734M603.457 144.894V28.1018M606.898 146.04V28.266M610.173 147.023V28.5923M613.283 148.17V28.9207M616.56 149.153V29.0849M619.67 150.134V29.4112M622.782 151.117V29.7396M625.893 152.1V29.9038M628.839 153.083V30.2301M631.787 154.066V30.3943M634.736 208.777V30.7227M637.682 209.267V30.8869M640.63 209.924V31.2132M643.414 210.579V31.3774M646.198 211.069V31.5416M648.98 211.724V31.8678M651.765 212.381V32.032M654.385 212.871V32.3605M657.169 213.364V199.933M657.169 92.3124V32.5247M659.789 214.018V200.588M659.789 93.6218V32.6867M662.409 214.511V201.242M662.409 94.9333V33.0152M665.029 215.166V33.1794M667.485 215.656V33.3436M670.105 216.147V33.6698M672.56 216.639V33.834M675.016 217.294V33.9982M677.472 217.784V34.1625M679.93 218.277V34.4887M682.222 218.77V34.6529M684.678 219.26V34.8171M686.972 219.751V34.9813M689.263 220.243V35.1456M691.555 220.734V35.4718M693.847 221.226V35.636M696.14 221.717V209.431M696.14 110.987V35.8002M698.268 222.207V209.922M698.268 111.968V35.9645M700.562 222.7V210.414M700.562 113.115V36.1287M702.689 223.028V36.2907M704.819 223.519V36.4549M706.947 224.009V36.6191M709.076 224.502V36.7833M711.204 224.83V36.9454M713.169 225.321V37.2738M715.299 225.811V37.6022M717.265 226.14V40.2231M719.228 226.63V42.6798M721.194 226.959V45.3007M723.159 227.451V47.7574M725.125 227.777V50.3782M727.088 228.27V52.8349M728.89 228.596V217.294M728.89 126.71V55.2916M730.855 229.089V217.787M730.855 127.529V57.5862M732.656 229.415V218.277M732.656 128.512V60.0429M734.458 229.908V62.4996M736.259 230.234V64.7942M738.223 230.563V67.0867M739.862 231.055V69.3791M741.663 231.381V71.6738M743.465 231.71V73.9662M745.266 232.036V76.2587M746.901 232.529V78.3891M748.703 232.855V80.6816M750.34 233.183V82.812M751.979 233.512V84.9402M753.617 233.838V87.0707M755.254 234.331V89.1989M756.891 234.657V224.173M756.891 140.143V91.3293M758.528 234.985V224.502M758.528 140.798V93.4576M760.165 235.314V224.83M760.165 141.617V95.588M761.803 235.64V97.5542M763.278 235.969V99.5204M764.915 236.295V101.649M766.388 236.623V103.615M768.025 236.949V105.581M769.499 237.278V107.545M770.974 237.606V109.511M772.447 199.769V111.315M773.92 200.259V113.28M775.395 200.75V115.246M776.868 201.078V117.048M778.341 201.569V118.848M779.817 202.061V120.814M781.125 202.552V122.616M782.599 203.044V124.418M783.91 203.371V126.22M785.383 203.863V128.022" stroke="white" stroke-opacity="0.5" stroke-width="0.479158" stroke-linecap="round" stroke-linejoin="round"/>
<path d="M786.694 204.353V129.659M788.003 204.846V131.461M789.478 205.172V133.263M790.787 205.663V134.901M792.098 206.155V136.703M793.407 206.484V138.343M794.718 206.974V139.979M796.027 207.303V141.618M797.174 207.793V143.254M798.483 208.122V144.894M799.792 208.612V146.53M801.103 208.94V148.17M802.25 209.431V149.807M803.559 209.759V151.445M804.706 210.25V152.919M806.015 210.578V154.557M807.162 210.907V156.032M808.309 211.397V157.67M809.456 211.723V159.144M810.765 212.052V160.617M811.912 246.288V162.093M813.059 246.452V163.569M814.203 246.778V165.204M815.35 246.942V166.516M816.495 247.271V167.989M817.478 247.433V169.463M818.625 247.761V170.937M819.772 247.925V172.412M820.916 248.09V239.572M820.916 205.008V173.722M821.899 248.418V239.736M821.899 205.501V175.197M823.046 248.58V240.063M823.046 205.829V176.509M824.029 248.908V177.98M825.176 249.073V179.292M826.156 249.235V180.601M827.303 249.563V182.077M828.286 249.727V183.386M829.269 249.892V184.698M830.414 250.22V186.009M831.396 250.382V187.317M832.379 250.546V188.628M833.362 250.875V189.94M834.345 251.037V191.249M835.327 251.201V192.558M836.31 251.365V193.708M837.291 251.694V243.502M837.291 211.069V195.015M838.276 251.856V243.829M838.276 211.397V196.326M839.256 252.02V243.995M839.256 211.723V197.474M840.239 252.184V198.783M841.222 252.512V199.93M842.041 252.677V201.242M843.023 252.839V202.387M844.006 253.003V203.534M844.825 253.331V204.846M845.807 253.496V205.993M846.79 253.658V207.136M811.257 246.288V212.544M633.753 208.776V155.049M841.386 337.033L844.334 336.707V253.331M841.386 252.677V337.035M-301.415 266.926V330.318L-302.562 330.154V267.255M-282.42 263.16V324.095M-282.42 324.75V332.12L-283.729 331.956V324.586M-283.729 324.257V263.322M-261.132 334.25L-259.494 334.415V326.224M-259.494 258.409V325.24M-261.134 334.25V326.061M-261.134 325.24V258.737M-233.625 336.871L-231.659 337.035V328.025M-231.659 252.839V326.224M-233.623 336.871V327.861M-233.623 326.224V253.167M-199.236 340.145L-196.781 340.473V325.24M-196.781 245.795V323.931M-199.236 340.147V325.733M-199.236 324.095V246.288M-152.24 344.732L-155.353 344.403M-152.24 236.623V323.767M-152.24 324.095V344.734M-155.351 344.406V323.931M-155.351 323.603V237.278M-92.9631 224.666V325.405M-92.9631 326.388V350.466L-97.2203 349.976V326.224M-97.2203 325.24V225.485M-10.4339 207.793V327.533M-10.4339 329.499V358.329L-16.6567 357.838V329.337M-16.6567 327.371V209.105M112.376 182.896V370.286L103.043 369.303V184.86M339.988 387.323L314.935 389.779M314.935 389.779L298.561 388.142V145.056M314.935 389.779V141.781M339.988 146.858V387.321M532.884 233.347L535.668 233.183V334.577L532.884 334.412M538.778 233.512L535.666 233.183M707.932 350.466L714.481 349.811V225.975M707.93 224.666V350.466M512.743 369.96L521.749 368.977V185.352M512.743 183.386V369.957M636.045 209.431V357.674L630.15 358.165V203.37L616.396 204.682V343.751M633.097 204.027L630.148 203.372M765.896 344.57L768.844 344.241V237.442M765.898 236.787V344.57M810.929 246.288V328.68M810.929 330.482V340.147L808.637 340.311V330.646M808.637 328.68V242.848L798.485 243.338M798.483 243.338V331.301H802.576M810.765 243.338L808.635 242.848M768.844 330.975L801.267 331.465M538.124 334.415L535.668 334.579M521.749 341.13L618.852 344.079M621.962 343.915L616.394 343.751M798.976 331.629L768.847 331.139M521.749 350.302L525.678 350.466M612.793 344.57L521.749 341.785M808.473 212.052V219.096M808.473 220.405V241.044M808.473 242.355V242.846M807.162 211.723V218.603M807.162 220.079V240.717M807.162 242.193V242.848M806.998 211.723V218.603M806.998 220.079V240.717M806.998 242.029V242.848M800.939 209.759V243.176M808.473 242.848V242.357M808.473 241.046V220.571M631.952 155.378V166.187M631.952 168.48V203.861M628.839 154.23V165.368M628.839 167.661V203.534M628.675 154.23V165.204M628.675 167.497V203.532M620.325 151.445V204.353M632.116 203.863V168.644M632.116 166.187V155.378M521.749 189.285L529.445 194.034L521.749 189.447M540.908 200.914L588.394 229.908M540.908 201.078L588.23 229.908M521.749 190.921L529.445 195.508M540.908 202.387L586.429 230.07M598.874 228.596L540.908 192.396M598.874 228.596L540.908 192.232M598.874 228.596L598.22 228.76H598.056H597.892V228.924L597.728 229.253M529.445 185.188L526.499 183.386M526.497 183.386L529.443 185.188" stroke="white" stroke-opacity="0.5" stroke-width="0.479158" stroke-linecap="round" stroke-linejoin="round"/>
<path d="M598.22 228.761L598.874 228.596M597.727 229.253L597.891 228.925M540.579 125.891V233.51M535.175 124.092V233.186M534.849 124.092V233.186M529.445 122.287V232.855M540.744 233.512V125.894M602.803 145.875L620.324 159.799M633.098 169.792L632.115 169.137L633.098 169.956M602.641 145.875L620.327 159.799M597.399 144.238L620.324 162.093M632.115 171.43L633.098 172.248L632.115 172.413M633.096 159.799L632.113 158.98M632.115 158.98L633.098 159.799M790.132 206.156L772.283 207.629M616.395 220.079L588.558 222.21M575.13 223.355L540.906 225.976M529.445 226.959L521.749 227.613M521.749 224.666L529.445 224.011M540.908 223.028L570.711 220.572M584.301 219.424L616.395 216.804M772.283 203.863L780.961 203.206M521.749 224.83L529.445 224.176M540.908 223.193L570.873 220.736M584.463 219.589L616.393 216.968M772.283 204.19L781.454 203.371M772.611 200.586H772.283M616.395 213.854L580.208 216.968M566.615 218.113L540.908 220.241M529.445 221.226L521.749 221.881M521.749 218.932L529.445 218.113M540.908 217.13L562.032 215.328M575.784 214.183L616.393 210.579M521.749 219.096L529.445 218.441M540.908 217.294L562.358 215.492M575.948 214.347L616.393 210.743M616.395 207.303L571.365 211.398M557.773 212.709L540.906 214.183M529.445 215.328L521.749 215.982M521.749 212.871L529.445 212.052M540.908 211.069L553.189 209.922M566.944 208.612L620.324 203.535M632.115 202.552L633.098 202.388M521.749 213.035L529.445 212.381M540.908 211.233L553.353 210.086M567.27 208.777L620.324 203.863M632.115 202.716L633.098 202.552M633.096 198.948L632.113 199.112M620.324 200.259L562.358 205.83M548.604 207.139L540.908 207.958M529.445 208.941L521.749 209.76M521.749 206.484L529.445 205.83M540.908 204.682L543.854 204.354M557.773 202.88L620.324 196.655M632.115 195.508L633.098 195.344M521.749 206.646L529.445 205.992M540.908 204.846L544.182 204.518M558.101 203.044L620.324 196.82M632.115 195.672H633.098M633.096 191.742H632.113M620.324 193.051L553.023 199.931M529.445 202.388L521.749 203.206M521.749 199.931L529.445 199.112M548.439 196.982L620.324 189.447M632.115 188.138L633.098 187.974M521.749 200.095L529.445 199.276M548.766 197.146L620.324 189.612M632.115 188.3H633.098M633.096 184.041L632.113 184.206M620.324 185.517L543.364 193.87M529.281 195.508L521.749 196.327M521.749 192.887L524.533 192.559M540.908 190.759L620.324 181.749M632.115 180.44L633.098 180.275M521.749 193.051L524.859 192.723M540.908 190.921L620.324 181.911M632.115 180.604L633.098 180.44M633.096 176.017L632.113 176.181M620.324 177.49L540.908 186.829M528.626 184.698L529.445 184.534M540.908 183.222L620.324 173.558M632.115 172.248L632.934 172.084M528.952 184.862L529.443 184.698M540.908 183.387L620.324 173.886M620.324 169.137L540.908 178.966M529.445 180.44L526.499 180.768M526.497 177L529.443 176.671M540.744 175.198L620.324 165.043M526.497 177.326L529.443 176.836M540.908 175.36L620.324 165.367M540.908 175.524L620.324 165.369M633.096 158.489L632.113 158.654M618.195 160.456L540.906 170.611M529.445 172.248L526.499 172.577M526.497 168.809L529.443 168.318M540.908 166.842L613.611 157.014M526.497 168.973L529.443 168.647M540.908 167.007L613.94 157.178M608.045 152.429L540.908 161.929M529.445 163.567L526.499 163.895M526.497 159.963L529.443 159.634M540.908 157.997L603.46 148.825M526.497 160.127L529.443 159.799M603.624 148.989L540.908 158.161L603.624 149.151M597.399 144.073L540.906 152.591M529.445 154.231L526.499 154.721M526.497 150.627L529.443 150.136M540.908 148.496L588.23 141.126M526.497 150.791L529.443 150.462M540.908 148.66L588.722 141.29M575.622 137.194L540.908 142.6M529.445 144.402L526.499 144.894M526.497 140.798L529.443 140.305M540.908 138.341L566.615 134.247M526.497 140.962L529.443 140.472M566.944 134.411L540.908 138.67L567.108 134.411M553.351 129.988L540.906 132.116M529.445 134.082L526.499 134.573M526.497 130.152L529.443 129.66M540.908 127.693L544.346 127.039M526.661 130.314L529.445 129.824M540.908 127.858L544.839 127.201M526.497 130.314L529.443 129.824M529.445 122.944L526.499 123.435M800.939 212.216L772.283 214.345M616.395 225.976L596.911 227.287M583.482 228.432L540.908 231.546M529.445 232.365L526.825 232.529M521.749 230.072L529.445 229.417M540.908 228.596L579.061 225.649M592.487 224.666L616.393 222.702M772.283 210.743L797.992 208.777M521.749 230.234L529.445 229.58M540.908 228.761L579.389 225.813M616.395 222.864L592.815 224.83L616.395 223.028M772.283 210.907L798.483 208.941M810.438 212.709L808.473 212.873M800.939 213.364L772.283 215.494M616.395 226.959L598.384 228.268M585.119 229.253L540.908 232.529M808.963 212.216H808.473M800.939 212.871L772.283 214.999M616.395 226.468L597.729 227.942M584.301 228.925L540.908 232.038M849.736 208.448L717.427 36.7812M717.427 36.7834L714.971 37.276M525.678 195.836L529.445 198.129" stroke="white" stroke-opacity="0.5" stroke-width="0.479158" stroke-linecap="round" stroke-linejoin="round"/>
<path d="M545.001 207.465L549.587 210.25M529.445 204.518L526.335 202.716M525.843 202.387H525.678M526.497 155.378L529.443 157.18M540.908 164.876L543.2 166.514M547.293 169.299H547.457M547.947 169.791L553.842 173.56M557.773 176.343H557.937M558.427 176.835L563.832 180.439M567.927 183.222H568.091M568.581 183.551L573.657 186.99M578.241 190.102L583.154 193.377M587.576 196.327L592.323 199.44M596.745 202.551L601.002 205.501M591.015 206.32L586.593 203.535M586.103 203.206V203.042M582.172 200.585L577.422 197.474M573.003 194.525L567.927 191.249M567.434 190.921V190.756M563.341 188.138L558.101 184.698M553.516 181.749L547.947 177.98M543.364 175.033L540.908 173.395M529.445 165.861L526.661 163.895M575.785 137.193L582.334 142.107M586.921 145.713L592.98 150.462M596.909 153.411L597.073 153.576M597.566 153.902L603.46 158.325M607.225 161.272L607.389 161.436M607.879 161.765L613.284 166.023M617.705 169.463L620.325 171.429M620.325 181.42L615.739 177.98M611.32 174.705L606.08 170.775M601.657 167.497L596.09 163.402M591.669 159.963L585.775 155.54M585.12 155.213V155.049M581.189 152.1L574.966 147.513M570.219 143.911L563.667 138.998M563.013 138.669V138.505M558.92 135.556L551.879 130.314M551.224 129.823V129.659M717.427 35.6358L849.736 207.629V208.448L847.771 208.612M717.427 35.6358L317.063 0.254883M717.427 35.6358V36.7809L714.971 37.2736M717.427 35.6379V36.7831L317.063 2.71156M-305.836 233.347L-305.017 233.183M-305.836 233.347L317.063 2.71156M-305.836 233.347V232.691L317.063 0.254883M-305.017 233.183V267.581M-305.017 233.183H-304.853M317.063 2.71156V0.254883M768.845 252.02L798.483 250.711M772.283 233.347L800.939 231.545M808.473 231.217L810.765 231.053M810.765 233.674H808.473M800.939 234.166L772.283 235.804M810.765 233.512L808.473 233.676M540.908 232.855L585.61 229.579M598.875 228.596L616.396 227.287M772.283 215.984L800.939 213.856M808.473 213.199L810.765 213.035M810.765 215.82L808.473 215.984M800.939 216.475L772.283 218.441M810.765 215.656L808.473 215.82M847.771 253.822L844.332 253.986M847.771 253.822V208.448M847.771 253.822H847.607M844.334 253.986L846.626 253.822M315.261 141.616L-304.199 267.581H-302.561H-305.017M315.426 140.962V4.02308M315.426 140.962L-304.853 267.581H-305.017M315.426 140.962L317.063 141.29M810.929 219.752L810.765 219.588H810.601L806.669 219.917M810.765 221.226L806.672 219.915M806.672 219.915V218.605H806.836L810.439 219.588M806.672 219.915L810.603 219.75M810.601 219.75H810.765M810.765 219.75V221.062M810.765 219.75V220.898V221.062M810.765 219.75V219.586M810.765 221.062H810.601H810.436M810.603 221.062H810.439L810.767 221.226M633.097 166.516H633.261M633.097 166.516V168.646M633.097 166.516H632.932M627.53 167.171L633.097 168.808H632.606M627.53 167.171L632.935 166.516H633.099M627.53 167.171V165.204V165.04M627.53 167.171H627.366V165.204L627.53 165.04M627.53 165.04H627.859M627.859 165.04L632.77 166.514M627.859 165.04L632.606 166.514M632.932 168.644H633.097V166.514M632.935 168.644H632.606M632.935 168.644L632.606 168.808M632.935 168.644H633.099M632.606 168.644V168.808M632.606 168.644H632.77M806.672 242.029L810.765 243.012V241.865H810.601M806.672 242.029L810.603 241.865M806.672 242.029V240.717M810.601 241.865H810.929M810.601 241.865L806.669 242.029M810.436 243.174H810.601H810.765V243.01M810.439 243.174H810.603M806.672 240.717H806.836V240.553L806.672 240.717Z" stroke="white" stroke-opacity="0.5" stroke-width="0.479158" stroke-linecap="round" stroke-linejoin="round"/>
</g>
<path d="M806.836 240.552L810.767 241.535L806.836 240.716M810.767 243.173H810.439H810.603M810.765 212.869L772.284 200.42M633.097 155.703L526.498 121.303M526.498 120.976L633.097 155.376M772.284 200.258L810.765 212.707M768.845 327.86L798.484 328.353M798.484 252.511L768.845 253.82M-301.414 324.42L-283.728 325.567V263.323M-301.414 324.42V266.925M-301.414 324.42V330.317L-283.728 331.954V325.565M-261.131 327.203L-282.42 325.73V332.119L-261.131 334.249M-261.133 258.736V327.205V334.249M-282.42 263.159V325.732M-259.494 327.205L-233.622 329.007M-259.494 327.205V258.408M-259.494 327.205V334.413L-233.622 336.87V329.007M-233.622 329.007V253.166M-199.236 331.302L-231.659 329.172V337.034L-199.236 340.145V331.3V246.286M-231.659 252.837V329.169M-196.78 331.464L-155.352 334.413M-196.78 331.464V245.794M-196.78 331.464V340.474M-155.35 237.276V334.413V344.404M-152.24 334.575L-97.2198 338.341M-152.24 334.575V236.622M-152.24 334.575V344.73L-97.2198 349.972M-97.2198 225.483V338.344V349.974M-92.9625 338.672L-16.6562 343.749M-92.9625 338.672V224.664M-92.9625 338.672V350.465L-16.6562 357.837V343.749M-16.6562 343.749V209.103M-10.4334 344.24L103.046 351.938M-10.4334 344.24V207.792M-10.4334 344.24V358.327L103.046 369.302M103.043 184.859V351.938V369.302M112.377 352.595L298.559 365.371M112.377 352.595V182.894M112.377 352.595V370.287M298.561 145.057V365.371V388.14M538.779 334.413L616.394 336.215M538.779 334.413V233.51M538.779 334.413H538.122M616.396 227.94L538.781 233.51M841.387 252.675V329.172V337.034L810.929 340.145V331.3M810.929 246.286V331.3M810.929 331.3L841.387 329.169M714.481 338.179L765.899 334.413M714.481 338.179V225.974M714.481 338.179V349.81L765.899 344.568V334.413M765.899 334.413V236.786M512.743 183.385V352.431L339.989 364.717V387.321L512.743 369.958M339.989 146.857V364.714M707.93 338.672V224.664M707.93 338.672L636.045 343.749M707.93 338.672V350.465L636.045 357.673V343.749M636.045 209.43V343.749M521.75 334.904L532.884 334.413V233.346L521.75 231.872M-196.78 340.472L-155.352 344.404M112.377 370.285L298.559 388.138M512.743 369.956V352.429M621.963 343.912L630.151 344.076V358.163L521.75 368.975V351.776L630.151 344.078M618.852 344.076L612.794 344.566M525.679 350.465L521.75 350.793M802.579 331.3L808.638 331.464V340.31M801.268 331.464L798.976 331.628M768.845 344.242V334.249L808.635 331.464M768.845 344.24L808.635 340.308M525.679 202.386H525.843M526.333 202.714L529.444 204.516M549.587 210.249L545.002 207.463M529.446 198.127L525.679 195.835M526.662 163.894L529.446 165.86M540.909 173.394L543.365 175.032M547.948 177.979L553.516 181.747M558.102 184.696L563.342 188.136M567.435 190.757V190.921M567.927 191.248L573.003 194.523M577.422 197.473L582.172 200.584M586.103 203.043V203.207M586.594 203.533L591.015 206.318M601.003 205.499L596.745 202.55M592.324 199.439L587.576 196.325M583.155 193.378L578.241 190.102M573.658 186.989L568.582 183.549M568.089 183.221H567.925M563.832 180.438L558.428 176.834M557.938 176.341H557.773M553.845 173.556L547.95 169.788M547.458 169.297H547.293M543.2 166.514L540.909 164.877M529.446 157.176L526.5 155.374M551.225 129.658V129.822M551.879 130.313L558.92 135.554M563.014 138.504V138.668M563.668 138.994L570.219 143.907M574.967 147.511L581.189 152.099M585.12 155.048V155.212M585.775 155.538L591.669 159.961M596.091 163.401L601.657 167.495M606.081 170.773L611.321 174.703M615.74 177.979L620.325 181.419M620.325 171.428L617.705 169.462M613.284 166.022L607.88 161.763M607.389 161.437L607.225 161.273M603.458 158.323L597.564 153.901M597.074 153.574L596.909 153.41M592.981 150.461L586.922 145.712M582.336 142.108L575.787 137.194M846.627 253.82L810.765 246.286V243.173M810.765 243.011V241.863V221.06M810.765 220.896V219.749M810.765 219.587V212.543L772.284 200.093M771.303 237.933L633.099 208.775M633.097 208.775V168.643V166.512M633.097 166.514V155.212L526.498 120.812M525.024 186.006L315.262 141.615M836.801 243.337V210.741L839.747 211.886M839.749 211.886V244.156L836.803 243.337M823.537 205.992L820.262 204.845V239.407L823.537 240.226M823.537 205.99V240.223M400.575 138.011L380.434 133.098V46.6084L400.575 53.8164V138.011Z" stroke="white" stroke-opacity="0.5" stroke-width="0.479158" stroke-linecap="round" stroke-linejoin="round"/>
<path d="M491.454 159.964V86.5794L476.226 81.0092V156.358L491.454 159.962V86.5772M761.151 142.106L756.401 139.814V224.008L761.151 225.156M761.148 225.158V142.108L756.399 139.816M756.399 224.008L761.148 225.156V142.106M728.235 126.381V217.129L733.801 218.44M733.801 129.004L728.235 126.383V217.131M728.237 217.129L733.804 218.44V129.004L728.237 126.383M662.899 201.406V95.0967L655.039 91.3285V199.44L662.899 201.404V95.0945M847.609 208.121L714.973 37.273M714.971 37.273L317.062 4.18457M317.062 141.29L526.497 185.845M634.572 155.049L526.497 119.994V185.842L525.024 186.007M634.572 155.049V208.614M634.572 155.049L633.098 155.213M772.283 237.932L634.572 208.612L633.098 208.776M811.747 212.38L772.283 199.604V237.934H771.3M811.747 212.38V246.287M811.747 212.38L810.764 212.544M811.747 246.287L847.609 253.821M811.747 246.287H810.764M839.749 244.157V211.887L836.802 210.742M836.8 210.742V243.338L839.746 244.157M823.536 205.993V240.226L820.262 239.408V204.846M823.536 205.991L820.262 204.843M700.89 210.578L694.339 208.94V110.165L700.89 113.279V210.578ZM380.433 133.098L400.574 138.012V53.8172L380.433 46.6092V133.098Z" stroke="white" stroke-opacity="0.5" stroke-width="0.479158" stroke-linecap="round" stroke-linejoin="round"/>
</g>
<defs>
<clipPath id="clip0_148_7564">
<rect width="1156" height="390" fill="white" transform="translate(-306 0.0898438)"/>
</clipPath>
</defs>
</svg>
